# Blender 5.0.1
# www.blender.org
mtllib Cabin_Railing.mtl
o LowPoly_Cube
v 0.444672 0.562445 0.111788
v 0.444672 0.687877 -0.089216
v 0.494080 0.562445 -0.052828
v 0.494080 0.562445 0.052078
v 0.494080 0.687877 -0.036466
v 0.494080 0.687877 0.035783
v -0.494081 0.562445 0.052078
v -0.494081 0.562445 -0.052828
v -0.494081 0.687877 0.035783
v -0.494081 0.687877 -0.036466
v 0.444672 0.664546 -0.112547
v 0.494080 0.664546 -0.052828
v 0.494080 0.664546 0.052078
v -0.494081 0.664546 0.052078
v -0.494081 0.664546 -0.052828
v -0.444673 0.562445 0.111788
v -0.444673 0.687877 0.088552
v -0.444673 0.664546 0.111788
v 0.444672 0.687877 0.088552
v 0.444672 0.664546 0.111788
v 0.444672 0.562445 -0.112547
v -0.441093 0.664546 -0.112547
v -0.441093 0.562445 -0.112547
v -0.441093 0.687877 -0.089216
v 0.266803 0.664546 0.111788
v 0.088934 0.664546 0.111788
v -0.088935 0.664546 0.111788
v -0.266804 0.664546 0.111788
v -0.266804 0.687877 0.088552
v -0.088935 0.687877 0.088552
v 0.088934 0.687877 0.088552
v 0.266803 0.687877 0.088552
v -0.263940 0.687877 -0.089216
v -0.086787 0.687877 -0.089216
v 0.090366 0.687877 -0.089216
v 0.267519 0.687877 -0.089216
v -0.086787 0.562445 -0.112547
v 0.090366 0.562445 -0.112547
v 0.266803 0.562445 -0.112547
v 0.266803 0.562445 0.111788
v 0.090366 0.562445 0.111788
v -0.086787 0.562445 0.111788
v -0.266804 0.562445 0.111788
v 0.267519 0.664546 -0.112547
v 0.090366 0.664546 -0.112547
v -0.086787 0.664546 -0.112547
v -0.263940 0.664546 -0.112547
v 0.123287 0.562445 -0.074003
v 0.234196 0.562445 -0.074003
v 0.233748 0.562445 0.073244
v 0.122391 0.562445 0.073244
v 0.123287 0.072236 -0.074003
v 0.234196 0.072236 -0.074003
v 0.233748 0.072236 0.073244
v 0.122391 0.072236 0.073244
v 0.123287 0.072236 -0.123193
v 0.234196 0.072236 -0.123193
v 0.233748 0.072236 0.122434
v 0.122391 0.072236 0.122434
v 0.123287 0.004876 -0.123193
v 0.234196 0.004876 -0.123193
v 0.122391 0.004876 0.122434
v 0.080442 0.072236 0.073244
v 0.275193 0.072236 0.073244
v 0.233748 0.004876 0.122434
v 0.080442 0.072236 -0.074003
v 0.080442 0.004876 0.073244
v 0.080442 0.004876 -0.074003
v 0.275977 0.072236 -0.074003
v 0.275193 0.004876 0.073244
v 0.275977 0.004876 -0.074003
v -0.266804 0.562445 -0.112547
v -0.233883 0.562445 -0.074003
v -0.122974 0.562445 -0.074003
v -0.123422 0.562445 0.073244
v -0.234779 0.562445 0.073244
v -0.233883 0.072236 -0.074003
v -0.122974 0.072236 -0.074003
v -0.123422 0.072236 0.073244
v -0.234779 0.072236 0.073244
v -0.233883 0.072236 -0.123193
v -0.122974 0.072236 -0.123193
v -0.123422 0.072236 0.122434
v -0.234779 0.072236 0.122434
v -0.233883 0.004876 -0.123193
v -0.122974 0.004876 -0.123193
v -0.234779 0.004876 0.122434
v -0.276728 0.072236 0.073244
v -0.081977 0.072236 0.073244
v -0.123422 0.004876 0.122434
v -0.276728 0.072236 -0.074003
v -0.276728 0.004876 0.073244
v -0.276728 0.004876 -0.074003
v -0.081193 0.072236 -0.074003
v -0.081977 0.004876 0.073244
v -0.081193 0.004876 -0.074003
vn -0.0000 -0.0000 1.0000
vn -0.0000 0.7057 0.7085
vn 1.0000 -0.0000 -0.0000
vn -1.0000 -0.0000 -0.0000
vn -0.7480 -0.0000 -0.6637
vn -0.6557 0.4880 0.5761
vn 0.6557 0.4880 0.5761
vn -0.6287 0.5039 -0.5924
vn -0.7704 -0.0000 0.6375
vn -0.0000 1.0000 -0.0000
vn -0.0000 -1.0000 -0.0000
vn 0.6550 0.4896 -0.5755
vn 0.7705 -0.0000 -0.6375
vn -0.0000 0.7071 -0.7071
vn 0.7704 -0.0000 0.6375
vn -0.0000 -0.0000 -1.0000
vn -1.0000 -0.0000 -0.0061
vn 1.0000 -0.0000 0.0030
vn 1.0000 -0.0000 0.0053
vn 0.7647 -0.0000 0.6443
vn -0.7609 -0.0000 0.6489
vn -0.7541 -0.0000 -0.6568
vn 0.7622 -0.0000 -0.6474
vt 0.141943 0.016801
vt 0.145835 0.031825
vt 0.097612 0.031755
vt 0.083453 0.016801
vt 0.147270 0.029286
vt 0.102533 0.032878
vt 0.379339 0.055817
vt 0.378342 0.033041
vt 0.401923 0.031687
vt 0.401500 0.053752
vt 0.088504 0.036737
vt 0.090481 0.050469
vt 0.073453 0.064365
vt 0.071476 0.028083
vt 0.099084 0.054353
vt 0.082834 0.070243
vt 0.073347 0.063851
vt 0.090453 0.050669
vt 0.091856 0.038445
vt 0.088834 0.036670
vt 0.366384 0.044065
vt 0.367126 0.042087
vt 0.358147 0.033645
vt 0.362689 0.032666
vt 0.374607 0.041731
vt 0.091793 0.048789
vt 0.103315 0.053392
vt 0.071634 0.028342
vt 0.127093 0.088697
vt 0.125985 0.158151
vt 0.110688 0.139665
vt 0.110688 0.107186
vt 0.146818 0.056734
vt 0.362635 0.055229
vt 0.358043 0.054012
vt 0.373359 0.043921
vt 0.364892 0.071308
vt 0.385936 0.070598
vt 0.144617 0.054528
vt 0.365719 0.016801
vt 0.387677 0.017156
vt 0.401327 0.158151
vt 0.401327 0.088697
vt 0.416624 0.107186
vt 0.416624 0.139665
vt 0.316639 0.032597
vt 0.321288 0.016801
vt 0.260112 0.032176
vt 0.261602 0.016801
vt 0.202117 0.031930
vt 0.202078 0.016801
vt 0.314545 0.030154
vt 0.259483 0.028691
vt 0.202267 0.028402
vt 0.318879 0.070243
vt 0.315272 0.055278
vt 0.259848 0.070243
vt 0.259062 0.055227
vt 0.200276 0.070243
vt 0.201227 0.055002
vt 0.346259 0.158151
vt 0.346259 0.088697
vt 0.291633 0.158151
vt 0.291634 0.088697
vt 0.301826 0.100630
vt 0.301548 0.146218
vt 0.236787 0.158151
vt 0.236787 0.088697
vt 0.313692 0.057461
vt 0.258856 0.058618
vt 0.201826 0.058404
vt 0.292678 0.341632
vt 0.292664 0.383448
vt 0.153454 0.383400
vt 0.153469 0.341584
vt 0.336025 0.146218
vt 0.336163 0.100630
vt 0.435530 0.183543
vt 0.376878 0.183543
vt 0.383821 0.204036
vt 0.435667 0.204036
vt 0.292704 0.268193
vt 0.292689 0.310009
vt 0.153479 0.309961
vt 0.153494 0.268145
vt 0.292715 0.236697
vt 0.153505 0.236650
vt 0.381438 0.229911
vt 0.434444 0.229911
vt 0.337540 0.183543
vt 0.288778 0.183543
vt 0.294877 0.204036
vt 0.328858 0.204036
vt 0.236198 0.183543
vt 0.245254 0.204036
vt 0.278914 0.204036
vt 0.342623 0.204036
vt 0.367066 0.204036
vt 0.296314 0.229911
vt 0.327437 0.229911
vt 0.245156 0.229911
vt 0.283097 0.229911
vt 0.338720 0.229911
vt 0.363250 0.229911
vt 0.216837 0.204036
vt 0.216676 0.229911
vt 0.097835 0.160786
vt 0.131780 0.131839
vt 0.131780 0.266231
vt 0.097835 0.237630
vt 0.233390 0.131839
vt 0.233390 0.266772
vt 0.267335 0.237940
vt 0.267335 0.161405
vt 0.292664 0.268273
vt 0.292664 0.310089
vt 0.153454 0.310089
vt 0.153454 0.268273
vt 0.329369 0.184315
vt 0.379591 0.184315
vt 0.372616 0.204036
vt 0.337530 0.204036
vt 0.292664 0.236649
vt 0.371023 0.229911
vt 0.339627 0.229911
vt 0.224830 0.184315
vt 0.287112 0.184315
vt 0.279230 0.204036
vt 0.224502 0.204036
vt 0.322686 0.204036
vt 0.296812 0.204036
vt 0.429590 0.184315
vt 0.420953 0.204036
vt 0.388367 0.204036
vt 0.280826 0.229911
vt 0.226063 0.229911
vt 0.299807 0.229911
vt 0.419366 0.229911
vt 0.384195 0.229911
vt 0.446703 0.204036
vt 0.447457 0.229911
vt 0.100502 0.160682
vt 0.133379 0.132645
vt 0.133378 0.262808
vt 0.100502 0.235108
vt 0.231791 0.132645
vt 0.231791 0.263332
vt 0.264668 0.235407
vt 0.264668 0.161281
vt 0.139286 0.070243
vt 0.181053 0.088697
vt 0.181053 0.158151
vt 0.191246 0.100630
vt 0.190968 0.146218
vt 0.225444 0.146218
vt 0.225583 0.100630
s 0
usemtl Material.001
f 43/1/1 28/2/1 18/3/1 16/4/1
f 28/2/2 29/5/2 17/6/2 18/3/2
f 12/7/3 13/8/3 4/9/3 3/10/3
f 14/11/4 15/12/4 8/13/4 7/14/4
f 22/15/5 23/16/5 8/17/5 15/18/5
f 18/3/6 17/6/6 9/19/6 14/20/6
f 5/21/3 6/22/3 13/8/3 12/7/3
f 19/23/7 20/24/7 13/25/7 6/22/7
f 9/19/4 10/26/4 15/12/4 14/11/4
f 24/27/8 22/15/8 15/18/8 10/26/8
f 16/4/9 18/3/9 14/20/9 7/28/9
f 17/6/10 24/27/10 10/26/10 9/19/10
f 23/29/11 16/30/11 7/31/11 8/32/11
f 29/5/10 33/33/10 24/27/10 17/6/10
f 11/34/12 2/35/12 5/21/12 12/36/12
f 21/37/13 11/34/13 12/36/13 3/38/13
f 2/35/10 19/23/10 6/22/10 5/21/10
f 33/33/14 47/39/14 22/15/14 24/27/14
f 20/24/15 1/40/15 4/41/15 13/25/15
f 1/42/11 21/43/11 3/44/11 4/45/11
f 1/40/1 20/24/1 25/46/1 40/47/1
f 40/47/1 25/46/1 26/48/1 41/49/1
f 41/49/1 26/48/1 27/50/1 42/51/1
f 42/51/1 27/50/1 28/2/1 43/1/1
f 20/24/2 19/23/2 32/52/2 25/46/2
f 25/46/2 32/52/2 31/53/2 26/48/2
f 26/48/2 31/53/2 30/54/2 27/50/2
f 27/50/2 30/54/2 29/5/2 28/2/2
f 11/34/16 21/37/16 39/55/16 44/56/16
f 44/56/16 39/55/16 38/57/16 45/58/16
f 45/58/16 38/57/16 37/59/16 46/60/16
f 21/43/11 1/42/11 40/61/11 39/62/11
f 41/63/11 38/64/11 48/65/11 51/66/11
f 38/64/11 41/63/11 42/67/11 37/68/11
f 19/23/10 2/35/10 36/69/10 32/52/10
f 32/52/10 36/69/10 35/70/10 31/53/10
f 31/53/10 35/70/10 34/71/10 30/54/10
f 30/54/10 34/71/10 33/33/10 29/5/10
f 2/35/14 11/34/14 44/56/14 36/69/14
f 36/69/14 44/56/14 45/58/14 35/70/14
f 35/70/14 45/58/14 46/60/14 34/71/14
f 34/71/14 46/60/14 47/39/14 33/33/14
f 51/72/17 48/73/17 52/74/17 55/75/17
f 39/62/11 40/61/11 50/76/11 49/77/11
f 40/61/11 41/63/11 51/66/11 50/76/11
f 38/64/11 39/62/11 49/77/11 48/65/11
f 55/78/10 52/79/10 66/80/10 63/81/10
f 49/82/18 50/83/18 54/84/18 53/85/18
f 50/83/1 51/72/1 55/75/1 54/84/1
f 48/86/16 49/82/16 53/85/16 52/87/16
f 63/81/4 66/80/4 68/88/4 67/89/4
f 53/90/10 54/91/10 64/92/10 69/93/10
f 54/91/10 55/94/10 59/95/10 58/96/10
f 52/79/10 53/90/10 57/97/10 56/98/10
f 64/92/10 54/91/10 58/96/10
f 69/93/19 64/92/19 70/99/19 71/100/19
f 58/96/1 59/95/1 62/101/1 65/102/1
f 56/98/16 57/97/16 61/103/16 60/104/16
f 58/96/20 65/102/20 70/99/20 64/92/20
f 59/95/21 63/105/21 67/106/21 62/101/21
f 63/105/10 59/95/10 55/94/10
f 68/88/22 66/80/22 56/98/22 60/104/22
f 66/80/10 52/79/10 56/98/10
f 69/93/23 71/100/23 61/103/23 57/97/23
f 53/90/10 69/93/10 57/97/10
f 62/107/11 67/108/11 70/109/11 65/110/11
f 68/111/11 71/112/11 70/109/11 67/108/11
f 61/113/11 71/112/11 68/111/11 60/114/11
f 76/115/17 73/116/17 77/117/17 80/118/17
f 80/119/10 77/120/10 91/121/10 88/122/10
f 74/72/18 75/73/18 79/74/18 78/75/18
f 75/123/1 76/115/1 80/118/1 79/87/1
f 73/116/16 74/72/16 78/75/16 77/117/16
f 88/122/4 91/121/4 93/124/4 92/125/4
f 78/126/10 79/127/10 89/128/10 94/129/10
f 79/127/10 80/119/10 84/130/10 83/131/10
f 77/120/10 78/132/10 82/133/10 81/134/10
f 89/128/10 79/127/10 83/131/10
f 94/129/19 89/128/19 95/135/19 96/136/19
f 83/131/1 84/130/1 87/100/1 90/137/1
f 81/134/16 82/133/16 86/138/16 85/139/16
f 83/131/20 90/137/20 95/135/20 89/128/20
f 84/130/21 88/122/21 92/125/21 87/100/21
f 88/122/10 84/130/10 80/119/10
f 93/124/22 91/121/22 81/134/22 85/139/22
f 91/121/10 77/120/10 81/134/10
f 94/140/23 96/141/23 86/138/23 82/133/23
f 78/132/10 94/140/10 82/133/10
f 87/142/11 92/143/11 95/144/11 90/145/11
f 93/146/11 96/147/11 95/144/11 92/143/11
f 86/148/11 96/147/11 93/146/11 85/149/11
f 47/39/16 72/150/16 23/16/16 22/15/16
f 72/151/11 43/152/11 16/30/11 23/29/11
f 46/60/16 37/59/16 72/150/16 47/39/16
f 43/152/11 72/151/11 73/153/11 76/154/11
f 37/68/11 42/67/11 75/155/11 74/156/11
f 42/67/11 43/152/11 76/154/11 75/155/11
f 72/151/11 37/68/11 74/156/11 73/153/11
