# Blender 5.0.1
# www.blender.org
mtllib Wall_Panels.mtl
o Cube
v 0.087474 -0.003684 -3.826519
v 0.087474 -0.003378 3.775766
v 0.087474 7.406281 -3.827384
v 0.087474 7.406588 3.774901
v -0.096674 -0.003684 -3.826519
v -0.096674 -0.003378 3.775766
v -0.096674 7.406281 -3.827384
v -0.096674 7.406588 3.774901
vn -0.0000 -0.0001 -1.0000
vn -0.0000 1.0000 -0.0000
vn -1.0000 -0.0000 -0.0000
vn -0.0000 0.0001 1.0000
vn 1.0000 -0.0000 -0.0000
vn -0.0000 -1.0000 -0.0000
vt 0.738306 0.261196
vt 0.762171 0.261196
vt 0.762171 0.738299
vt 0.737918 0.738106
vt 0.738273 0.260919
vt 0.762304 0.261073
vt 0.762342 0.738311
vt 0.737812 0.738388
vt 0.999999 0.999999
vt 0.000001 0.999999
vt 0.000002 0.000001
vt 1.000000 0.000001
vt 0.738443 0.261113
vt 0.761880 0.261357
vt 0.761880 0.738164
vt 0.738199 0.737920
vt 0.000001 0.000001
vt 0.999998 0.000002
vt 0.999999 1.000000
vt 0.000001 0.999999
vt 0.738777 0.261387
vt 0.762060 0.261387
vt 0.761285 0.738103
vt 0.738389 0.738491
s 0
usemtl Material
f 1/1/1 5/2/1 7/3/1 3/4/1
f 4/5/2 3/6/2 7/7/2 8/8/2
f 8/9/3 7/10/3 5/11/3 6/12/3
f 6/13/4 2/14/4 4/15/4 8/16/4
f 2/17/5 1/18/5 3/19/5 4/20/5
f 6/21/6 5/22/6 1/23/6 2/24/6
