# Blender 5.0.1
# www.blender.org
mtllib Cabin_Wall.mtl
o LowPoly_Cube
v -0.494081 0.100000 0.176692
v -0.494081 0.100000 -0.199927
v 0.494080 0.100000 -0.199927
v 0.494080 0.100000 0.176692
v -0.494081 1.499854 0.176692
v -0.494081 1.499854 -0.176596
v 0.494080 1.499854 -0.176596
v 0.494080 1.499854 0.176692
v 1.482242 0.100000 -0.140208
v 1.482242 0.100000 0.140217
v 1.482242 1.499854 -0.123846
v 1.482242 1.499854 0.123922
v -1.482242 0.100000 0.140217
v -1.482242 0.100000 -0.140208
v -1.482242 1.499854 0.123922
v -1.482242 1.499854 -0.123846
v -0.494081 1.476523 0.176692
v -0.494081 1.476523 -0.199927
v 0.494080 1.476523 -0.199927
v 1.482242 1.476523 -0.140208
v 1.482242 1.476523 0.140217
v -1.482242 1.476523 0.140217
v -1.482242 1.476523 -0.140208
v -1.423633 0.100000 0.199927
v -1.423633 1.499854 0.176692
v -1.423633 1.476523 0.199927
v 1.411266 1.499854 0.176692
v 1.411266 0.100000 0.199927
v 1.411266 1.476523 0.199927
v 1.416858 0.100000 -0.199927
v 1.416858 1.476523 -0.199927
v 1.416858 1.499854 -0.176596
v -1.420053 1.476523 -0.199927
v -1.420053 0.100000 -0.199927
v -1.420053 1.499854 -0.176596
v -1.240242 0.100000 0.199927
v -1.240242 1.476523 0.199927
v 1.218734 0.100000 0.199927
v 0.494080 1.476523 0.176692
v -1.240242 0.100000 0.176692
v 1.214122 1.476523 0.176692
v 1.218734 0.100000 0.176692
v 1.214122 1.476523 0.199927
v -1.240242 1.476523 0.176692
v -1.240242 1.499854 0.176692
v 1.214023 1.499854 0.176692
vn -0.0000 -0.0000 -1.0000
vn -0.0000 -1.0000 -0.0000
vn -0.0000 1.0000 -0.0000
vn 1.0000 -0.0000 -0.0000
vn 0.6438 -0.0000 0.7652
vn -0.0000 0.7071 -0.7071
vn -1.0000 -0.0000 -0.0000
vn -0.6926 -0.0000 -0.7213
vn -0.5908 0.5215 0.6156
vn 0.5174 0.5531 0.6529
vn -0.5672 0.5336 -0.6273
vn -0.7137 -0.0000 0.7005
vn -0.0000 -0.0000 1.0000
vn 0.6744 -0.0000 -0.7384
vn 0.5480 0.5420 -0.6371
vn -1.0000 -0.0034 -0.0000
vn -1.0000 -0.0042 -0.0000
vn -0.0000 0.7057 0.7086
vn -0.0000 0.7056 0.7086
vt 0.828792 0.253264
vt 0.649365 0.253265
vt 0.649365 0.003321
vt 0.828791 0.003321
vt 0.512133 0.844141
vt 0.512150 0.793754
vt 0.520490 0.801165
vt 0.520973 0.836496
vt 0.272039 0.844492
vt 0.271391 0.797042
vt 0.395889 0.795342
vt 0.396537 0.842792
vt 0.409140 0.676432
vt 0.409143 0.731752
vt 0.254411 0.731759
vt 0.254408 0.676439
vt 0.389953 0.640898
vt 0.389462 0.665437
vt 0.121430 0.665773
vt 0.121430 0.640131
vt 0.390772 0.673432
vt 0.121514 0.674205
vt 0.554168 0.731737
vt 0.554029 0.677466
vt 0.564822 0.685715
vt 0.564318 0.723769
vt 0.649365 0.259256
vt 0.481810 0.259256
vt 0.481810 0.253265
vt 0.389428 0.584016
vt 0.389351 0.608488
vt 0.120875 0.608979
vt 0.120880 0.583561
vt 0.389898 0.615985
vt 0.120916 0.616759
vt 0.389945 0.576779
vt 0.392386 0.578476
vt 0.391491 0.585330
vt 0.828792 0.259255
vt 0.394100 0.642240
vt 0.393539 0.664169
vt 0.395696 0.671835
vt 0.481810 0.003321
vt 0.391468 0.607171
vt 0.392386 0.614319
vt 0.120913 0.576231
vt 0.065197 0.484059
vt 0.065093 0.790804
vt 0.024226 0.790790
vt 0.024330 0.484045
vt 0.121531 0.632338
vt 0.391195 0.633143
vt 0.396126 0.634816
vt 0.996925 0.253264
vt 0.996925 0.259255
vt 0.996925 0.003321
vt 0.108713 0.677860
vt 0.109450 0.730987
vt 0.100068 0.723089
vt 0.099928 0.685829
vt 0.154729 0.798635
vt 0.154966 0.849019
vt 0.147479 0.841597
vt 0.146996 0.806266
vt 0.613156 0.484246
vt 0.612023 0.790989
vt 0.656059 0.484261
vt 0.655954 0.791004
vt 0.451571 0.790935
vt 0.451675 0.484191
vt 0.451568 0.798272
vt 0.231365 0.798198
vt 0.231368 0.790860
vt 0.231472 0.484115
vt 0.487876 0.844472
vt 0.487836 0.841545
vt 0.178071 0.848703
vt 0.178031 0.845776
vt 0.109417 0.731766
vt 0.137570 0.676445
vt 0.065090 0.798141
vt 0.024223 0.798127
vt 0.553637 0.731745
vt 0.521873 0.676426
vt 0.552759 0.676425
vt 0.611999 0.798326
vt 0.655952 0.798341
vt 0.108853 0.676446
s 0
usemtl Material.001
f 18/1/1 19/2/1 3/3/1 2/4/1
f 28/5/2 30/6/2 9/7/2 10/8/2
f 1/9/2 2/10/2 3/11/2 4/12/2
f 8/13/3 7/14/3 6/15/3 5/16/3
f 20/17/4 21/18/4 10/19/4 9/20/4
f 29/21/5 28/22/5 10/19/5 21/18/5
f 32/23/3 27/24/3 12/25/3 11/26/3
f 19/2/6 7/27/6 32/28/6 31/29/6
f 22/30/7 23/31/7 14/32/7 13/33/7
f 33/34/8 34/35/8 14/32/8 23/31/8
f 26/36/9 25/37/9 15/38/9 22/30/9
f 6/39/6 7/27/6 19/2/6 18/1/6
f 11/40/4 12/41/4 21/18/4 20/17/4
f 27/42/10 29/21/10 21/18/10 12/41/10
f 3/3/1 19/2/1 31/29/1 30/43/1
f 15/38/7 16/44/7 23/31/7 22/30/7
f 35/45/11 33/34/11 23/31/11 16/44/11
f 24/46/12 26/36/12 22/30/12 13/33/12
f 36/47/13 37/48/13 26/49/13 24/50/13
f 30/51/14 31/52/14 20/17/14 9/20/14
f 31/52/15 32/53/15 11/40/15 20/17/15
f 6/39/6 18/1/6 33/54/6 35/55/6
f 18/1/1 2/4/1 34/56/1 33/54/1
f 25/57/3 35/58/3 16/59/3 15/60/3
f 34/61/2 24/62/2 13/63/2 14/64/2
f 38/65/16 43/66/16 41/66/16 42/65/16
f 43/66/13 38/65/13 28/67/13 29/68/13
f 39/69/13 4/70/13 42/65/13 41/66/13
f 37/48/4 36/47/4 40/47/4 44/48/4
f 8/71/13 5/72/13 17/73/13 39/69/13
f 39/69/13 17/73/13 1/74/13 4/70/13
f 1/74/13 17/73/13 44/48/13 40/47/13
f 38/75/2 42/76/2 30/6/2 28/5/2
f 3/11/2 30/6/2 42/76/2 4/12/2
f 36/77/2 24/62/2 34/61/2 40/78/2
f 1/9/2 40/78/2 34/61/2 2/10/2
f 5/16/3 6/15/3 35/79/3 45/80/3
f 37/48/4 44/48/4 45/48/4
f 41/66/17 43/66/17 46/66/17
f 37/48/18 45/81/18 25/82/18 26/49/18
f 32/83/3 46/84/3 27/85/3
f 17/73/13 5/72/13 45/81/13 44/48/13
f 46/86/19 43/66/19 29/68/19 27/87/19
f 8/71/13 39/69/13 41/66/13 46/86/13
f 7/14/3 8/13/3 46/84/3 32/83/3
f 45/80/3 35/79/3 25/88/3
