# Blender 5.0.1
# www.blender.org
mtllib Cabin_Door_Closed.mtl
o LowPoly_Cube
v -0.492957 0.100000 0.176692
v -0.492957 0.100000 -0.199927
v 0.492960 0.100000 -0.199927
v 0.492960 0.100000 0.176692
v -0.468259 1.499854 0.176692
v -0.468259 1.499854 -0.176596
v 0.468262 1.499854 -0.176596
v 0.468262 1.499854 0.176692
v -0.492957 1.476523 0.176692
v -0.492957 1.476523 -0.199927
v 0.492960 1.476523 -0.199927
v 0.492960 1.476523 0.176692
v -0.443073 0.100000 0.176692
v 0.438289 0.100000 0.176692
v -0.443073 0.100000 -0.199927
v 0.441009 0.100000 -0.199927
v -0.443073 1.422706 0.176691
v 0.438289 1.422701 0.176691
v 0.438289 1.422706 -0.199928
v -0.443073 1.422706 -0.199928
v -0.438481 0.110363 -0.091662
v -0.438481 0.110363 0.065497
v -0.438481 1.417451 -0.091662
v -0.438481 1.417451 0.065497
v 0.433687 1.417456 -0.091662
v 0.433688 1.417456 0.065497
v 0.433687 0.110363 -0.091662
v 0.433688 0.110363 0.065497
v 0.305513 0.868363 -0.105900
v 0.377912 0.896377 -0.105900
v 0.307849 0.866362 0.065495
v 0.363900 0.844351 -0.105900
v 0.433687 0.864361 -0.105900
v 0.305513 0.868363 -0.091661
v 0.377912 0.896377 -0.091661
v 0.433687 0.866362 0.082636
v 0.377912 0.896377 0.082635
v 0.307849 0.866362 0.082635
v 0.363899 0.842351 0.082635
v 0.396481 0.843975 0.066208
v 0.360562 0.843895 0.066207
v 0.396481 0.830080 0.100159
v 0.360562 0.830000 0.100159
v 0.396481 0.769868 0.122064
v 0.360562 0.769788 0.122063
v 0.396481 0.718919 0.102350
v 0.360562 0.718840 0.102349
v 0.396481 0.706182 0.065112
v 0.360562 0.706102 0.065112
v 0.396481 0.843975 -0.090516
v 0.360562 0.843895 -0.090515
v 0.396481 0.830080 -0.124468
v 0.360562 0.830000 -0.124467
v 0.396481 0.769868 -0.146372
v 0.360562 0.769788 -0.146371
v 0.396481 0.718919 -0.126658
v 0.360562 0.718840 -0.126657
v 0.396481 0.706182 -0.089421
v 0.360562 0.706102 -0.089420
v 0.433688 0.866362 0.065497
v 0.377912 0.896377 0.065495
v 0.363900 0.842351 0.065495
v 0.363900 0.844351 -0.091661
v 0.433687 0.864361 -0.091662
v -0.443073 0.100000 -0.000000
v 0.439649 0.100000 -0.000000
v 0.438289 1.422701 -0.000000
v -0.443073 1.422706 -0.000000
vn -0.0000 -1.0000 -0.0000
vn -0.0000 1.0000 -0.0000
vn -0.0000 0.7071 -0.7071
vn -0.0000 -0.0000 1.0000
vn -0.0000 -0.0000 -1.0000
vn 0.6867 0.7269 -0.0000
vn 1.0000 -0.0000 -0.0000
vn -0.6867 0.7269 -0.0000
vn -1.0000 -0.0000 -0.0000
vn 0.3253 -0.9456 -0.0000
vn 0.4978 0.8673 -0.0000
vn -0.3609 0.9326 -0.0000
vn -0.3803 -0.9248 -0.0000
vn 0.2756 -0.9613 -0.0000
vn -0.3938 0.9192 -0.0000
vn 0.4739 0.8806 -0.0000
vn -0.0021 0.9255 0.3788
vn -0.0008 0.3419 0.9397
vn 0.0008 -0.3609 0.9326
vn 0.0021 -0.9462 0.3236
vn -0.0021 0.9255 -0.3788
vn -0.0008 0.3419 -0.9397
vn 0.0008 -0.3609 -0.9326
vn 0.0021 -0.9462 -0.3237
vn -0.3938 -0.9192 -0.0000
vn -1.0000 -0.0015 -0.0034
vn -1.0000 -0.0005 -0.0038
vt 0.387568 0.842914
vt 0.387263 0.795459
vt 0.395889 0.795342
vt 0.396537 0.842792
vt 0.409140 0.676432
vt 0.409143 0.731752
vt 0.254411 0.731759
vt 0.254408 0.676439
vt 0.820955 0.322440
vt 0.640915 0.322440
vt 0.636167 0.316097
vt 0.825704 0.316096
vt 0.452484 0.900011
vt 0.197041 0.900012
vt 0.190304 0.893648
vt 0.459221 0.893648
vt 0.190303 0.518199
vt 0.203909 0.518199
vt 0.203911 0.878969
vt 0.459221 0.518208
vt 0.444309 0.878967
vt 0.444309 0.518208
vt 0.646677 0.305751
vt 0.816113 0.305750
vt 0.825704 0.051477
vt 0.816114 0.051477
vt 0.636166 0.051481
vt 0.646152 0.051481
vt 0.613837 0.796997
vt 0.613837 0.793592
vt 0.651576 0.793592
vt 0.649238 0.796997
vt 0.651576 0.499091
vt 0.613837 0.499091
vt 0.065137 0.792267
vt 0.065137 0.795691
vt 0.029223 0.795691
vt 0.026851 0.792267
vt 0.026851 0.489465
vt 0.065137 0.489465
vt 0.833263 0.600889
vt 0.833263 0.880794
vt 0.797681 0.880793
vt 0.797681 0.600889
vt 0.838697 0.815732
vt 0.838697 0.655711
vt 0.874278 0.655711
vt 0.874278 0.815732
vt 0.883619 0.720629
vt 0.883618 0.602368
vt 0.919200 0.602368
vt 0.919200 0.882273
vt 0.981188 0.760485
vt 0.999809 0.769628
vt 0.984927 0.781056
vt 0.999809 0.768864
vt 0.982653 0.762710
vt 0.969028 0.768923
vt 0.984683 0.776417
vt 0.965610 0.770388
vt 0.981188 0.761245
vt 0.984927 0.776663
vt 0.970139 0.768652
vt 0.982897 0.762682
vt 0.966233 0.769629
vt 0.768678 0.497429
vt 0.999382 0.497429
vt 0.999382 0.969133
vt 0.768678 0.969131
vt 0.982659 0.723960
vt 0.986043 0.723960
vt 0.986047 0.730421
vt 0.982663 0.730421
vt 0.986064 0.741249
vt 0.982680 0.741249
vt 0.986078 0.750489
vt 0.982695 0.750489
vt 0.986082 0.757434
vt 0.982698 0.757434
vt 0.982619 0.723960
vt 0.982623 0.730421
vt 0.986086 0.730421
vt 0.986082 0.723960
vt 0.982640 0.741249
vt 0.967385 0.768924
vt 0.272039 0.844492
vt 0.271391 0.797042
vt 0.282525 0.796890
vt 0.283173 0.844340
vt 0.296727 0.210735
vt 0.460872 0.212685
vt 0.460653 0.236731
vt 0.296915 0.236955
vt 0.461235 0.259325
vt 0.007713 0.214269
vt 0.171979 0.210724
vt 0.171934 0.237034
vt 0.008127 0.238329
vt 0.296873 0.262668
vt 0.296919 0.239382
vt 0.007728 0.260948
vt 0.172080 0.262667
vt 0.171928 0.239461
s 0
usemtl Material.001
f 14/1/1 16/2/1 3/3/1 4/4/1
f 8/5/2 7/6/2 6/7/2 5/8/2
f 6/9/3 7/10/3 11/11/3 10/12/3
f 8/13/4 5/14/4 9/15/4 12/16/4
f 9/15/4 1/17/4 13/18/4 17/19/4
f 4/20/4 12/16/4 18/21/4 14/22/4
f 12/16/4 9/15/4 17/19/4 18/21/4
f 10/12/5 11/11/5 19/23/5 20/24/5
f 2/25/5 10/12/5 20/24/5 15/26/5
f 11/11/5 3/27/5 16/28/5 19/23/5
f 8/29/6 12/30/6 11/31/6 7/32/6
f 3/33/7 11/31/7 12/30/7 4/34/7
f 9/35/8 5/36/8 6/37/8 10/38/8
f 10/38/9 2/39/9 1/40/9 9/35/9
f 23/41/9 21/42/9 22/43/9 24/44/9
f 24/45/2 26/46/2 25/47/2 23/48/2
f 26/49/7 28/50/7 27/51/7 25/52/7
f 22/48/1 21/45/1 27/46/1 28/47/1
f 62/53/10 60/54/10 36/54/10 39/53/10
f 35/55/11 64/56/11 33/56/11 30/55/11
f 33/56/5 32/57/5 29/58/5 30/59/5
f 34/60/12 35/55/12 30/55/12 29/60/12
f 63/61/13 34/60/13 29/60/13 32/61/13
f 64/56/14 63/61/14 32/61/14 33/56/14
f 36/54/4 37/62/4 38/63/4 39/64/4
f 61/55/15 31/65/15 38/65/15 37/55/15
f 60/54/16 61/55/16 37/55/16 36/54/16
f 22/66/4 28/67/4 26/68/4 24/69/4
f 40/70/17 41/71/17 43/72/17 42/73/17
f 42/73/18 43/72/18 45/74/18 44/75/18
f 44/75/19 45/74/19 47/76/19 46/77/19
f 46/77/20 47/76/20 49/78/20 48/79/20
f 50/80/21 52/81/21 53/82/21 51/83/21
f 52/81/22 54/84/22 55/74/22 53/82/22
f 54/84/23 56/77/23 57/76/23 55/74/23
f 56/77/24 58/79/24 59/78/24 57/76/24
f 31/85/25 62/53/25 39/53/25 38/65/25
f 21/66/5 23/69/5 25/68/5 27/67/5
f 1/86/1 2/87/1 15/88/1 13/89/1
f 19/90/26 16/91/26 66/92/26 67/93/26
f 16/91/2 14/94/2 66/92/2
f 15/95/7 20/96/7 68/97/7 65/98/7
f 14/94/27 18/99/27 67/100/27 66/92/27
f 13/101/2 15/95/2 65/98/2
f 20/96/1 19/90/1 67/93/1 68/97/1
f 18/99/1 17/102/1 68/103/1 67/100/1
f 17/102/7 13/101/7 65/98/7 68/103/7
