# Blender 5.0.1
# www.blender.org
mtllib Cheese_Wheel_3_4.mtl
o yellowcheesewheelcut
v 0.124902 0.119786 0.087457
v 0.111984 0.157858 0.078412
v 0.089910 0.157858 0.102501
v 0.100038 0.119786 0.114591
v 0.143281 0.119786 0.052150
v 0.128462 0.157858 0.046757
v 0.151896 0.119786 0.013289
v 0.136187 0.157858 0.011915
v 0.128462 0.157858 0.046757
v 0.143281 0.119786 0.052150
v 0.150160 0.119786 -0.026477
v 0.134630 0.157858 -0.023739
v 0.138191 0.119786 -0.064439
v 0.123899 0.157858 -0.057775
v 0.116804 0.119786 -0.098010
v 0.104724 0.157858 -0.087873
v 0.087457 0.119786 -0.124902
v 0.078412 0.157858 -0.111984
v 0.052150 0.119786 -0.143281
v 0.046757 0.157858 -0.128462
v 0.013289 0.119786 -0.151896
v 0.011915 0.157858 -0.136187
v -0.026477 0.119786 -0.150160
v -0.023739 0.157858 -0.134630
v -0.064439 0.119786 -0.138191
v -0.057775 0.157858 -0.123899
v -0.023739 0.157858 -0.134630
v -0.026477 0.119786 -0.150160
v -0.098010 0.119786 -0.116804
v -0.087873 0.157858 -0.104724
v -0.124902 0.119786 -0.087457
v -0.111984 0.157858 -0.078412
v -0.143281 0.119786 -0.052150
v -0.128462 0.157858 -0.046757
v -0.151896 0.119786 -0.013289
v -0.136187 0.157858 -0.011915
v -0.150160 0.119786 0.026477
v -0.134630 0.157858 0.023739
v -0.139094 0.119786 0.061576
v -0.124805 0.157858 0.054899
v 0.129308 0.078930 0.090542
v 0.103495 0.078930 0.118712
v 0.148336 0.078930 0.053990
v 0.157255 0.078930 0.013758
v 0.148336 0.078930 0.053990
v 0.155457 0.078930 -0.027411
v 0.143066 0.078930 -0.066713
v 0.120924 0.078930 -0.101468
v 0.090542 0.078930 -0.129308
v 0.053990 0.078930 -0.148336
v 0.013758 0.078930 -0.157255
v -0.027411 0.078930 -0.155457
v -0.066713 0.078930 -0.143066
v -0.027411 0.078930 -0.155457
v -0.101467 0.078930 -0.120924
v -0.129308 0.078930 -0.090542
v -0.148336 0.078930 -0.053990
v -0.157255 0.078930 -0.013758
v -0.155457 0.078930 0.027411
v -0.143968 0.078930 0.063851
v 0.124902 0.038074 0.087457
v 0.100038 0.038074 0.114591
v 0.143281 0.038074 0.052150
v 0.151896 0.038074 0.013289
v 0.143281 0.038074 0.052150
v 0.150160 0.038074 -0.026477
v 0.138191 0.038074 -0.064439
v 0.116804 0.038074 -0.098010
v 0.087457 0.038074 -0.124902
v 0.052150 0.038074 -0.143281
v 0.013289 0.038074 -0.151896
v -0.026477 0.038074 -0.150160
v -0.064439 0.038074 -0.138191
v -0.026477 0.038074 -0.150160
v -0.098010 0.038074 -0.116804
v -0.124902 0.038074 -0.087457
v -0.143281 0.038074 -0.052150
v -0.151896 0.038074 -0.013289
v -0.150160 0.038074 0.026477
v -0.139094 0.038074 0.061576
v 0.111984 0.000002 0.078412
v 0.089910 0.000002 0.102501
v 0.128462 0.000002 0.046757
v 0.136187 0.000002 0.011915
v 0.128462 0.000002 0.046757
v 0.134630 0.000002 -0.023739
v 0.123899 0.000002 -0.057775
v 0.104724 0.000002 -0.087873
v 0.078412 0.000002 -0.111984
v 0.046757 0.000002 -0.128462
v 0.011915 0.000002 -0.136187
v -0.023739 0.000002 -0.134630
v -0.057775 0.000002 -0.123899
v -0.023739 0.000002 -0.134630
v -0.087873 0.000002 -0.104724
v -0.111984 0.000002 -0.078412
v -0.128462 0.000002 -0.046757
v -0.136187 0.000002 -0.011915
v -0.134630 0.000002 0.023739
v -0.124805 0.000002 0.054899
v -0.134630 0.157858 0.023739
v -0.124805 0.157858 0.054899
v 0.000818 0.157858 -0.003692
v -0.136187 0.157858 -0.011915
v -0.128462 0.157858 -0.046757
v -0.111984 0.157858 -0.078412
v -0.087873 0.157858 -0.104724
v -0.057775 0.157858 -0.123899
v -0.023739 0.157858 -0.134630
v 0.011915 0.157858 -0.136187
v 0.046757 0.157858 -0.128462
v 0.078412 0.157858 -0.111984
v 0.104724 0.157858 -0.087873
v 0.123899 0.157858 -0.057775
v 0.134630 0.157858 -0.023739
v 0.136187 0.157858 0.011915
v 0.128462 0.157858 0.046757
v 0.111984 0.157858 0.078412
v 0.089910 0.157858 0.102501
v 0.111984 0.000002 0.078412
v 0.089910 0.000002 0.102501
v 0.000818 0.000002 -0.003692
v 0.128462 0.000002 0.046757
v 0.136187 0.000002 0.011915
v 0.134630 0.000002 -0.023739
v 0.078412 0.000002 -0.111984
v 0.046757 0.000002 -0.128462
v 0.011915 0.000002 -0.136187
v -0.023739 0.000002 -0.134630
v -0.057775 0.000002 -0.123899
v -0.087873 0.000002 -0.104724
v -0.111984 0.000002 -0.078412
v -0.128462 0.000002 -0.046757
v -0.136187 0.000002 -0.011915
v -0.134630 0.000002 0.023739
v -0.124805 0.000002 0.054899
v 0.001928 0.154858 0.002298
v 0.001928 0.003002 0.002298
v 0.086585 0.003002 0.103188
v 0.096131 0.038857 0.114565
v 0.099523 0.078930 0.118606
v 0.096131 0.119003 0.114565
v 0.086585 0.154858 0.103188
v -0.122082 0.154858 0.056928
v -0.135542 0.119003 0.063204
v -0.140323 0.078930 0.065434
v -0.135542 0.038857 0.063204
v -0.122082 0.003002 0.056928
v -0.002719 0.003002 0.001268
v -0.002719 0.154858 0.001268
v 0.000818 0.157858 -0.003692
v 0.000818 0.000002 -0.003692
v 0.089910 0.157858 0.102501
v 0.100038 0.119786 0.114591
v -0.139094 0.119786 0.061576
v -0.124805 0.157858 0.054899
v 0.103495 0.078930 0.118712
v -0.143968 0.078930 0.063851
v 0.100038 0.038074 0.114591
v -0.139094 0.038074 0.061576
v 0.089910 0.000002 0.102501
v -0.124805 0.000002 0.054899
v 0.089910 0.000002 0.102501
vn 0.7944 0.2538 0.5518
vn 0.4844 0.8067 0.3385
vn 0.1011 0.7726 0.6268
vn 0.3768 0.2462 0.8930
vn 0.9101 0.2529 0.3282
vn 0.5565 0.8052 0.2048
vn 0.9635 0.2541 0.0843
vn 0.5916 0.8046 0.0517
vn 0.5565 0.8053 0.2048
vn 0.9102 0.2529 0.3280
vn 0.9533 0.2529 -0.1651
vn 0.5836 0.8052 -0.1051
vn 0.8782 0.2538 -0.4055
vn 0.5358 0.8067 -0.2492
vn 0.7433 0.2545 -0.6186
vn 0.4568 0.8052 -0.3782
vn 0.5579 0.2543 -0.7900
vn 0.3439 0.8077 -0.4789
vn 0.3344 0.2539 -0.9076
vn 0.2104 0.8071 -0.5517
vn 0.0898 0.2554 -0.9627
vn 0.0570 0.8072 -0.5875
vn -0.1612 0.2545 -0.9535
vn -0.1004 0.8085 -0.5799
vn -0.4034 0.2557 -0.8785
vn -0.2453 0.8104 -0.5321
vn -0.1613 0.2545 -0.9535
vn -0.6183 0.2564 -0.7429
vn -0.3749 0.8089 -0.4529
vn -0.7907 0.2562 -0.5560
vn -0.4759 0.8114 -0.3394
vn -0.9086 0.2554 -0.3306
vn -0.5488 0.8104 -0.2051
vn -0.9629 0.2565 -0.0842
vn -0.5844 0.8099 -0.0511
vn -0.9521 0.2556 0.1678
vn -0.5761 0.8104 0.1067
vn -0.7133 0.2488 0.6552
vn -0.3427 0.7761 0.5293
vn 0.8209 -0.0039 0.5710
vn 0.4041 -0.0039 0.9147
vn 0.9413 -0.0039 0.3375
vn 0.9962 -0.0039 0.0872
vn 0.9856 -0.0039 -0.1690
vn 0.9076 -0.0039 -0.4198
vn 0.7685 -0.0039 -0.6398
vn 0.5772 -0.0039 -0.8166
vn 0.3439 -0.0039 -0.9390
vn 0.0927 -0.0039 -0.9957
vn -0.1651 -0.0039 -0.9863
vn -0.4180 -0.0039 -0.9084
vn -0.6398 -0.0039 -0.7685
vn -0.8177 -0.0040 -0.5756
vn -0.9403 -0.0040 -0.3402
vn -0.9962 -0.0039 -0.0872
vn -0.9851 -0.0039 0.1718
vn -0.7480 -0.0039 0.6637
vn 0.7928 -0.2611 0.5507
vn 0.3761 -0.2535 0.8912
vn 0.9083 -0.2601 0.3275
vn 0.9616 -0.2613 0.0841
vn 0.9514 -0.2601 -0.1648
vn 0.8764 -0.2611 -0.4047
vn 0.7418 -0.2618 -0.6174
vn 0.5568 -0.2616 -0.7884
vn 0.3337 -0.2611 -0.9058
vn 0.0896 -0.2627 -0.9607
vn -0.1609 -0.2618 -0.9516
vn -0.4026 -0.2630 -0.8768
vn -0.1608 -0.2618 -0.9516
vn -0.6170 -0.2638 -0.7414
vn -0.7891 -0.2636 -0.5549
vn -0.9067 -0.2628 -0.3299
vn -0.9608 -0.2641 -0.0841
vn -0.9502 -0.2628 0.1675
vn -0.7119 -0.2562 0.6539
vn 0.4813 -0.8095 0.3363
vn 0.1004 -0.7757 0.6231
vn 0.5529 -0.8080 0.2035
vn 0.5879 -0.8073 0.0514
vn 0.5799 -0.8080 -0.1044
vn 0.5323 -0.8095 -0.2476
vn 0.4539 -0.8079 -0.3758
vn 0.3417 -0.8104 -0.4759
vn 0.2090 -0.8098 -0.5482
vn 0.0566 -0.8099 -0.5838
vn -0.0998 -0.8112 -0.5762
vn -0.2437 -0.8131 -0.5287
vn -0.3725 -0.8116 -0.4500
vn -0.4729 -0.8140 -0.3372
vn -0.5454 -0.8130 -0.2038
vn -0.5807 -0.8125 -0.0508
vn -0.5725 -0.8130 0.1060
vn -0.3406 -0.7792 0.5262
vn -0.0323 0.9838 0.1766
vn -0.5488 0.8104 -0.2052
vn -0.4760 0.8113 -0.3394
vn 0.3440 0.8077 -0.4789
vn 0.5358 0.8068 -0.2492
vn 0.4844 0.8068 0.3384
vn 0.1005 -0.7757 0.6230
vn -0.0320 -0.9840 0.1752
vn 0.3418 -0.8104 -0.4758
vn -0.2437 -0.8130 -0.5288
vn -0.3725 -0.8116 -0.4501
vn -0.5453 -0.8130 -0.2039
vn -0.5808 -0.8125 -0.0508
vn -0.5725 -0.8130 0.1061
vn -0.3407 -0.7792 0.5261
vn -0.5058 0.4779 0.7182
vn -0.5038 -0.4839 0.7155
vn -0.5044 -0.3743 0.7781
vn -0.4127 -0.1136 0.9038
vn -0.4025 -0.0039 0.9154
vn -0.4131 0.1059 0.9045
vn -0.4997 0.3667 0.7848
vn 0.1357 0.3635 0.9217
vn 0.0019 0.1056 0.9944
vn -0.0152 -0.0039 0.9999
vn 0.0019 -0.1134 0.9935
vn 0.1353 -0.3702 0.9191
vn 0.1641 -0.4823 0.8605
vn 0.1647 0.4763 0.8637
vn -0.0323 0.9837 0.1766
vn -0.0320 -0.9840 0.1753
vn 0.4042 -0.0039 0.9147
vn -0.7480 -0.0040 0.6637
vn 0.1004 -0.7758 0.6230
vn 0.1004 -0.7757 0.6230
vt 0.108643 0.064941
vt 0.108643 0.000000
vt 0.208130 0.000000
vt 0.209106 0.064941
vt 0.000000 0.064941
vt 0.000000 0.000000
vt 0.760254 0.064941
vt 0.760254 0.000000
vt 0.869141 0.000000
vt 0.869141 0.064941
vt 0.651855 0.064941
vt 0.651855 0.000000
vt 0.542969 0.064941
vt 0.542969 0.000000
vt 0.434570 0.064941
vt 0.434570 0.000000
vt 0.325928 0.064941
vt 0.325928 0.000000
vt 0.217285 0.064941
vt 0.217285 0.000000
vt 0.116821 0.064941
vt 0.117798 0.000000
vt 0.108643 0.129883
vt 0.209351 0.129883
vt 0.000000 0.129883
vt 0.760254 0.129883
vt 0.869141 0.129883
vt 0.651855 0.129883
vt 0.542969 0.129883
vt 0.434570 0.129883
vt 0.325928 0.129883
vt 0.217285 0.129883
vt 0.116577 0.129883
vt 0.108643 0.194336
vt 0.209106 0.194336
vt 0.000000 0.194336
vt 0.760254 0.194336
vt 0.869141 0.194336
vt 0.651855 0.194336
vt 0.542969 0.194336
vt 0.434570 0.194336
vt 0.325928 0.194336
vt 0.217285 0.194336
vt 0.116821 0.194336
vt 0.108643 0.259277
vt 0.208130 0.259277
vt 0.000000 0.259277
vt 0.760254 0.259277
vt 0.869141 0.259277
vt 0.651855 0.259277
vt 0.542969 0.259277
vt 0.434570 0.259277
vt 0.325928 0.259277
vt 0.217285 0.259277
vt 0.117798 0.259277
vt 0.235474 0.630615
vt 0.165161 0.595459
vt 0.500000 0.467285
vt 0.329590 0.657715
vt 0.434570 0.671875
vt 0.542969 0.671875
vt 0.647949 0.657715
vt 0.742188 0.630615
vt 0.818848 0.592285
vt 0.873535 0.545166
vt 0.901367 0.492676
vt 0.901367 0.438477
vt 0.873535 0.385742
vt 0.818848 0.338867
vt 0.742188 0.300293
vt 0.647949 0.273438
vt 0.338379 0.271973
vt 0.898926 0.434082
vt 0.480713 0.461426
vt 0.329590 0.273438
vt 0.235474 0.300293
vt 0.158691 0.338867
vt 0.104370 0.385742
vt 0.076294 0.438477
vt 0.076294 0.492676
vt 0.104370 0.545166
vt 0.158691 0.592285
vt 0.425781 0.670654
vt 0.515625 0.928223
vt 0.515625 0.695801
vt 0.918457 0.695801
vt 0.963867 0.750732
vt 0.979980 0.812012
vt 0.963867 0.873413
vt 0.918457 0.928223
vt 0.108215 0.928223
vt 0.064331 0.873413
vt 0.048767 0.812012
vt 0.064331 0.750732
vt 0.108215 0.695801
vt 0.497559 0.695801
vt 0.497559 0.928223
vt 0.506348 0.935425
vt 0.506348 0.689209
vt 0.923340 0.935120
vt 0.975586 0.875061
vt 0.052673 0.875061
vt 0.103455 0.935120
vt 0.992188 0.812012
vt 0.036621 0.812012
vt 0.975586 0.749023
vt 0.052673 0.749023
vt 0.927246 0.689453
vt 0.103455 0.689209
vt 0.923340 0.689209
s 1
usemtl Material.017
f 1/1/1 2/2/2 3/3/3
f 3/3/3 4/4/4 1/1/1
f 5/5/5 6/6/6 2/2/2
f 2/2/2 1/1/1 5/5/5
f 7/7/7 8/8/8 9/9/9
f 9/9/9 10/10/10 7/7/7
f 11/11/11 12/12/12 8/8/8
f 8/8/8 7/7/7 11/11/11
f 13/13/13 14/14/14 12/12/12
f 12/12/12 11/11/11 13/13/13
f 15/15/15 16/16/16 14/14/14
f 14/14/14 13/13/13 15/15/15
f 17/17/17 18/18/18 16/16/16
f 16/16/16 15/15/15 17/17/17
f 19/19/19 20/20/20 18/18/18
f 18/18/18 17/17/17 19/19/19
f 21/1/21 22/2/22 20/20/20
f 20/20/20 19/19/19 21/1/21
f 23/5/23 24/6/24 22/2/22
f 22/2/22 21/1/21 23/5/23
f 25/7/25 26/8/26 27/9/24
f 27/9/24 28/10/27 25/7/25
f 29/11/28 30/12/29 26/8/26
f 26/8/26 25/7/25 29/11/28
f 31/13/30 32/14/31 30/12/29
f 30/12/29 29/11/28 31/13/30
f 33/15/32 34/16/33 32/14/31
f 32/14/31 31/13/30 33/15/32
f 35/17/34 36/18/35 34/16/33
f 34/16/33 33/15/32 35/17/34
f 37/19/36 38/20/37 36/18/35
f 36/18/35 35/17/34 37/19/36
f 39/21/38 40/22/39 38/20/37
f 38/20/37 37/19/36 39/21/38
f 41/23/40 1/1/1 4/4/4
f 4/4/4 42/24/41 41/23/40
f 43/25/42 5/5/5 1/1/1
f 1/1/1 41/23/40 43/25/42
f 44/26/43 7/7/7 10/10/10
f 10/10/10 45/27/42 44/26/43
f 46/28/44 11/11/11 7/7/7
f 7/7/7 44/26/43 46/28/44
f 47/29/45 13/13/13 11/11/11
f 11/11/11 46/28/44 47/29/45
f 48/30/46 15/15/15 13/13/13
f 13/13/13 47/29/45 48/30/46
f 49/31/47 17/17/17 15/15/15
f 15/15/15 48/30/46 49/31/47
f 50/32/48 19/19/19 17/17/17
f 17/17/17 49/31/47 50/32/48
f 51/23/49 21/1/21 19/19/19
f 19/19/19 50/32/48 51/23/49
f 52/25/50 23/5/23 21/1/21
f 21/1/21 51/23/49 52/25/50
f 53/26/51 25/7/25 28/10/27
f 28/10/27 54/27/50 53/26/51
f 55/28/52 29/11/28 25/7/25
f 25/7/25 53/26/51 55/28/52
f 56/29/53 31/13/30 29/11/28
f 29/11/28 55/28/52 56/29/53
f 57/30/54 33/15/32 31/13/30
f 31/13/30 56/29/53 57/30/54
f 58/31/55 35/17/34 33/15/32
f 33/15/32 57/30/54 58/31/55
f 59/32/56 37/19/36 35/17/34
f 35/17/34 58/31/55 59/32/56
f 60/33/57 39/21/38 37/19/36
f 37/19/36 59/32/56 60/33/57
f 61/34/58 41/23/40 42/24/41
f 42/24/41 62/35/59 61/34/58
f 63/36/60 43/25/42 41/23/40
f 41/23/40 61/34/58 63/36/60
f 64/37/61 44/26/43 45/27/42
f 45/27/42 65/38/60 64/37/61
f 66/39/62 46/28/44 44/26/43
f 44/26/43 64/37/61 66/39/62
f 67/40/63 47/29/45 46/28/44
f 46/28/44 66/39/62 67/40/63
f 68/41/64 48/30/46 47/29/45
f 47/29/45 67/40/63 68/41/64
f 69/42/65 49/31/47 48/30/46
f 48/30/46 68/41/64 69/42/65
f 70/43/66 50/32/48 49/31/47
f 49/31/47 69/42/65 70/43/66
f 71/34/67 51/23/49 50/32/48
f 50/32/48 70/43/66 71/34/67
f 72/36/68 52/25/50 51/23/49
f 51/23/49 71/34/67 72/36/68
f 73/37/69 53/26/51 54/27/50
f 54/27/50 74/38/70 73/37/69
f 75/39/71 55/28/52 53/26/51
f 53/26/51 73/37/69 75/39/71
f 76/40/72 56/29/53 55/28/52
f 55/28/52 75/39/71 76/40/72
f 77/41/73 57/30/54 56/29/53
f 56/29/53 76/40/72 77/41/73
f 78/42/74 58/31/55 57/30/54
f 57/30/54 77/41/73 78/42/74
f 79/43/75 59/32/56 58/31/55
f 58/31/55 78/42/74 79/43/75
f 80/44/76 60/33/57 59/32/56
f 59/32/56 79/43/75 80/44/76
f 81/45/77 61/34/58 62/35/59
f 62/35/59 82/46/78 81/45/77
f 83/47/79 63/36/60 61/34/58
f 61/34/58 81/45/77 83/47/79
f 84/48/80 64/37/61 65/38/60
f 65/38/60 85/49/79 84/48/80
f 86/50/81 66/39/62 64/37/61
f 64/37/61 84/48/80 86/50/81
f 87/51/82 67/40/63 66/39/62
f 66/39/62 86/50/81 87/51/82
f 88/52/83 68/41/64 67/40/63
f 67/40/63 87/51/82 88/52/83
f 89/53/84 69/42/65 68/41/64
f 68/41/64 88/52/83 89/53/84
f 90/54/85 70/43/66 69/42/65
f 69/42/65 89/53/84 90/54/85
f 91/45/86 71/34/67 70/43/66
f 70/43/66 90/54/85 91/45/86
f 92/47/87 72/36/68 71/34/67
f 71/34/67 91/45/86 92/47/87
f 93/48/88 73/37/69 74/38/70
f 74/38/70 94/49/87 93/48/88
f 95/50/89 75/39/71 73/37/69
f 73/37/69 93/48/88 95/50/89
f 96/51/90 76/40/72 75/39/71
f 75/39/71 95/50/89 96/51/90
f 97/52/91 77/41/73 76/40/72
f 76/40/72 96/51/90 97/52/91
f 98/53/92 78/42/74 77/41/73
f 77/41/73 97/52/91 98/53/92
f 99/54/93 79/43/75 78/42/74
f 78/42/74 98/53/92 99/54/93
f 100/55/94 80/44/76 79/43/75
f 79/43/75 99/54/93 100/55/94
f 101/56/37 102/57/39 103/58/95
f 104/59/35 101/56/37 103/58/95
f 105/60/96 104/59/35 103/58/95
f 106/61/97 105/60/96 103/58/95
f 107/62/29 106/61/97 103/58/95
f 108/63/26 107/62/29 103/58/95
f 109/64/24 108/63/26 103/58/95
f 110/65/22 109/64/24 103/58/95
f 111/66/20 110/65/22 103/58/95
f 112/67/98 111/66/20 103/58/95
f 113/68/16 112/67/98 103/58/95
f 114/69/99 113/68/16 103/58/95
f 115/70/12 114/69/99 103/58/95
f 116/71/8 115/70/12 103/58/95
f 117/51/6 116/71/8 103/58/95
f 118/52/100 117/51/6 103/58/95
f 119/72/3 118/52/100 103/58/95
f 120/68/77 121/73/101 122/74/102
f 123/69/79 120/68/77 122/74/102
f 124/70/80 123/69/79 122/74/102
f 125/71/81 124/70/80 122/74/102
f 87/51/82 125/71/81 122/74/102
f 88/52/83 87/51/82 122/74/102
f 126/75/103 88/52/83 122/74/102
f 127/76/85 126/75/103 122/74/102
f 128/77/86 127/76/85 122/74/102
f 129/78/87 128/77/86 122/74/102
f 130/79/104 129/78/87 122/74/102
f 131/80/105 130/79/104 122/74/102
f 132/81/90 131/80/105 122/74/102
f 133/82/106 132/81/90 122/74/102
f 134/56/107 133/82/106 122/74/102
f 135/59/108 134/56/107 122/74/102
f 136/83/109 135/59/108 122/74/102
f 137/84/110 138/85/111 139/86/112
f 139/86/112 140/87/113 141/88/114
f 139/86/112 141/88/114 142/89/115
f 137/84/110 139/86/112 142/89/115
f 143/90/116 137/84/110 142/89/115
f 144/91/117 145/92/118 146/93/119
f 146/93/119 147/94/120 148/95/121
f 144/91/117 146/93/119 148/95/121
f 144/91/117 148/95/121 149/96/122
f 150/97/123 144/91/117 149/96/122
f 151/98/124 150/97/123 137/84/110
f 138/85/111 149/96/122 152/99/125
f 153/100/3 143/90/116 142/89/115
f 142/89/115 154/101/4 153/100/3
f 155/102/38 145/92/118 144/91/117
f 144/91/117 156/103/39 155/102/38
f 154/101/4 142/89/115 141/88/114
f 141/88/114 157/104/126 154/101/4
f 158/105/127 146/93/119 145/92/118
f 145/92/118 155/102/38 158/105/127
f 157/104/126 141/88/114 140/87/113
f 140/87/113 159/106/59 157/104/126
f 160/107/76 147/94/120 146/93/119
f 146/93/119 158/105/127 160/107/76
f 159/106/59 140/87/113 139/86/112
f 139/86/112 161/108/128 159/106/59
f 162/109/109 148/95/121 147/94/120
f 147/94/120 160/107/76 162/109/109
f 156/103/39 144/91/117 150/97/123
f 150/97/123 151/98/124 156/103/39
f 151/98/124 137/84/110 143/90/116
f 143/90/116 153/100/3 151/98/124
f 152/99/125 149/96/122 148/95/121
f 148/95/121 162/109/109 152/99/125
f 163/110/129 139/86/112 138/85/111
f 138/85/111 152/99/125 163/110/129
f 137/84/110 150/97/123 149/96/122
f 149/96/122 138/85/111 137/84/110
