# Blender v2.90.0 OBJ File: ''
# www.blender.org
mtllib Cheese_Wedge.mtl
o yellowcheesewedge
v -0.065951 0.039464 0.040856
v -0.050719 0.035382 0.078928
v -0.038215 0.065568 0.078928
v -0.051868 0.073465 0.040856
v -0.070755 0.002976 0.040856
v -0.054983 0.002989 0.078928
v -0.071147 0.040856 0.000000
v -0.056525 0.076156 0.000000
v -0.076134 0.002975 0.000000
v -0.065951 0.039464 -0.040856
v -0.051868 0.073465 -0.040856
v -0.070755 0.002976 -0.040856
v -0.050719 0.035382 -0.078928
v -0.038215 0.065568 -0.078928
v -0.054983 0.002989 -0.078928
v -0.054983 0.002989 0.078928
v 0.072834 0.002276 0.078928
v -0.038215 0.065568 0.078928
v -0.050719 0.035382 0.078928
v -0.038215 0.065568 -0.078928
v 0.072834 0.002277 -0.078928
v -0.054983 0.002989 -0.078928
v -0.050719 0.035382 -0.078928
v -0.052756 0.077415 0.000000
v -0.048188 0.074777 0.040073
v -0.035326 0.067351 0.075928
v -0.048188 0.074777 -0.040073
v 0.076134 0.003000 0.075928
v 0.076134 0.003000 -0.075928
v -0.035326 0.067351 -0.075928
v -0.053372 0.000000 0.075928
v -0.068224 0.000000 0.040073
v -0.073500 0.000000 0.000000
v -0.068224 0.000000 -0.040073
v -0.053372 0.000000 -0.075928
v 0.075330 0.000000 0.075928
v 0.075330 0.000000 -0.075928
v -0.076134 0.002975 0.000000
v -0.070755 0.002976 0.040856
v -0.070755 0.002976 -0.040856
v -0.054983 0.002989 -0.078928
v 0.072834 0.002276 0.078928
v -0.038215 0.065568 0.078928
v 0.072834 0.002277 -0.078928
v -0.038215 0.065568 -0.078928
v -0.051868 0.073465 0.040856
v -0.056525 0.076156 0.000000
v -0.051868 0.073465 -0.040856
v -0.054983 0.002989 0.078928
vt 0.325928 0.064941
vt 0.325928 0.000000
vt 0.425293 0.000000
vt 0.426270 0.064941
vt 0.225464 0.064941
vt 0.226440 0.000000
vt 0.325928 0.129883
vt 0.426758 0.129883
vt 0.225220 0.129883
vt 0.325928 0.194336
vt 0.426270 0.194336
vt 0.225464 0.194336
vt 0.325928 0.259277
vt 0.425293 0.259277
vt 0.226440 0.259277
vt 0.321777 0.275879
vt 0.515625 0.467285
vt 0.165161 0.335449
vt 0.235474 0.300293
vt 0.875488 0.540771
vt 0.515625 0.467285
vt 0.901367 0.442871
vt 0.901367 0.492676
vt 0.979980 0.812012
vt 0.963867 0.750732
vt 0.918457 0.695801
vt 0.963867 0.873413
vt 0.515625 0.695801
vt 0.515625 0.928223
vt 0.918457 0.928223
vt 0.108215 0.695801
vt 0.064331 0.750732
vt 0.048767 0.812012
vt 0.064331 0.873413
vt 0.108215 0.928223
vt 0.497803 0.696045
vt 0.497559 0.928223
vt 0.039673 0.812012
vt 0.053040 0.749023
vt 0.054199 0.875183
vt 0.103394 0.935242
vt 0.506836 0.688721
vt 0.923340 0.688965
vt 0.506836 0.935242
vt 0.923340 0.935242
vt 0.975586 0.749023
vt 0.992188 0.812012
vt 0.975586 0.875061
vt 0.103394 0.688965
vn -0.9333 0.2460 0.2616
vn -0.5677 0.1449 0.8104
vn -0.3011 0.5513 0.7781
vn -0.6601 0.7070 0.2539
vn -0.9224 -0.2919 0.2530
vn -0.5405 -0.3305 0.7737
vn -0.9671 0.2545 0.0039
vn -0.6952 0.7188 0.0039
vn -0.9584 -0.2855 0.0039
vn -0.9352 0.2466 -0.2544
vn -0.6614 0.7084 -0.2465
vn -0.9242 -0.2924 -0.2457
vn -0.5713 0.1458 -0.8077
vn -0.3029 0.5547 -0.7750
vn -0.5437 -0.3325 -0.7706
vn -0.5405 -0.3305 0.7738
vn 0.3404 -0.0978 0.9352
vn -0.5677 0.1448 0.8104
vn 0.3432 -0.0908 -0.9349
vn 0.0670 0.9977 0.0039
vn 0.0828 0.9900 0.1144
vn 0.2090 0.9033 0.3747
vn 0.0829 0.9908 -0.1066
vn 0.8664 0.3411 0.3646
vn 0.8669 0.3444 -0.3602
vn 0.2097 0.9059 -0.3679
vn -0.2700 -0.8882 0.3717
vn -0.4240 -0.8986 0.1128
vn -0.4394 -0.8983 0.0039
vn -0.4244 -0.8994 -0.1051
vn -0.2780 -0.8889 -0.3642
vn 0.5723 -0.7358 0.3621
vn 0.5739 -0.7379 -0.3553
vn -0.9584 -0.2856 0.0039
vn -0.9242 -0.2925 -0.2457
vn -0.3010 0.5513 0.7781
vn 0.3432 -0.0907 -0.9349
usemtl Material.016
s 1
f 1/1/1 2/2/2 3/3/3
f 3/3/3 4/4/4 1/1/1
f 5/5/5 6/6/6 2/2/2
f 2/2/2 1/1/1 5/5/5
f 7/7/7 1/1/1 4/4/4
f 4/4/4 8/8/8 7/7/7
f 9/9/9 5/5/5 1/1/1
f 1/1/1 7/7/7 9/9/9
f 10/10/10 7/7/7 8/8/8
f 8/8/8 11/11/11 10/10/10
f 12/12/12 9/9/9 7/7/7
f 7/7/7 10/10/10 12/12/12
f 13/13/13 10/10/10 11/11/11
f 11/11/11 14/14/14 13/13/13
f 15/15/15 12/12/12 10/10/10
f 10/10/10 13/13/13 15/15/15
f 16/16/16 17/17/17 18/18/3
f 18/18/3 19/19/18 16/16/16
f 20/20/14 21/21/19 22/22/15
f 22/22/15 23/23/13 20/20/14
f 24/24/20 25/25/21 26/26/22
f 27/27/23 24/24/20 26/26/22
f 26/26/22 28/28/24 29/29/25
f 27/27/23 26/26/22 29/29/25
f 30/30/26 27/27/23 29/29/25
f 31/31/27 32/32/28 33/33/29
f 33/33/29 34/34/30 35/35/31
f 31/31/27 33/33/29 35/35/31
f 36/36/32 31/31/27 35/35/31
f 37/37/33 36/36/32 35/35/31
f 28/28/24 36/36/32 37/37/33
f 37/37/33 29/29/25 28/28/24
f 38/38/34 33/33/29 32/32/28
f 32/32/28 39/39/5 38/38/34
f 40/40/35 34/34/30 33/33/29
f 33/33/29 38/38/34 40/40/35
f 41/41/15 35/35/31 34/34/30
f 34/34/30 40/40/35 41/41/15
f 42/42/17 28/28/24 26/26/22
f 26/26/22 43/43/36 42/42/17
f 44/44/37 37/37/33 35/35/31
f 35/35/31 41/41/15 44/44/37
f 45/45/14 30/30/26 29/29/25
f 29/29/25 44/44/37 45/45/14
f 25/25/21 46/46/4 43/43/36
f 43/43/36 26/26/22 25/25/21
f 24/24/20 47/47/8 46/46/4
f 46/46/4 25/25/21 24/24/20
f 27/27/23 48/48/11 47/47/8
f 47/47/8 24/24/20 27/27/23
f 30/30/26 45/45/14 48/48/11
f 48/48/11 27/27/23 30/30/26
f 31/31/27 49/49/6 39/39/5
f 39/39/5 32/32/28 31/31/27
f 36/36/32 42/42/17 49/49/6
f 49/49/6 31/31/27 36/36/32
f 42/42/17 36/36/32 28/28/24
f 44/44/37 29/29/25 37/37/33
