# Blender 5.0.1
# www.blender.org
mtllib Cabin_Window.mtl
o LowPoly_Cube
v 0.494080 0.100000 0.176692
v 0.494080 0.100000 -0.199927
v 0.494080 1.499854 -0.176596
v 0.494080 1.499854 0.176692
v 1.482242 0.100000 -0.140208
v 1.482242 0.100000 0.140217
v 1.482242 1.499854 -0.123846
v 1.482242 1.499854 0.123922
v -0.494081 0.100000 0.140217
v -0.494081 0.100000 -0.140208
v -0.494081 1.499854 0.123922
v -0.494081 1.499854 -0.123846
v 0.494080 1.476523 -0.199927
v 1.482242 1.476523 -0.140208
v 1.482242 1.476523 0.140217
v -0.494081 1.476523 0.140217
v -0.494081 1.476523 -0.140208
v -0.435472 0.100000 0.199927
v -0.435472 1.499854 0.176692
v -0.435472 1.476523 0.199927
v 1.411266 1.499854 0.176692
v 1.411266 0.100000 0.199927
v 1.411266 1.476523 0.199927
v 1.416858 0.100000 -0.199927
v 1.416858 1.476523 -0.199927
v 1.416858 1.499854 -0.176596
v -0.431892 1.476523 -0.199927
v -0.431892 0.100000 -0.199927
v -0.431892 1.499854 -0.176596
v -0.252081 0.100000 0.199927
v -0.252081 1.476523 0.199927
v 1.218734 0.100000 0.199927
v 0.494080 1.476523 0.176692
v -0.252081 0.100000 0.176692
v 1.214122 1.476523 0.176692
v 1.218734 0.100000 0.176692
v 1.214122 1.476523 0.199927
v -0.252081 1.476523 0.176692
v -0.252081 1.499854 0.176692
v 1.214023 1.499854 0.176692
v 0.494080 1.296038 0.176692
v 0.494080 0.688155 0.176692
v 0.494080 1.296038 -0.199927
v 0.494080 0.688155 -0.199927
v 0.494080 1.296038 0.131609
v 0.494080 0.688155 0.131609
v 0.494080 1.296038 -0.154844
v 0.494080 0.688155 -0.154844
v 0.997167 0.688155 0.176691
v 0.997167 1.296038 0.176691
v -0.006221 1.296038 0.176691
v -0.006221 0.688155 0.176691
v 0.997167 0.688155 0.131608
v 0.997167 1.296038 0.131608
v -0.002405 1.296038 -0.199927
v -0.006220 0.688155 -0.199927
v 1.000982 0.688155 -0.199927
v 1.000982 1.296038 -0.199927
v -0.006221 1.296038 0.131608
v -0.006221 0.688155 0.131608
v -0.002405 1.296038 -0.154845
v -0.006220 0.688155 -0.154845
v 1.000982 0.688155 -0.154845
v 1.000982 1.296038 -0.154845
v 0.494412 1.242476 0.131609
v 0.494412 0.741717 0.131609
v 0.494412 1.242476 -0.154844
v 0.494412 0.741717 -0.154844
v 0.908843 0.741717 0.131608
v 0.908843 1.242476 0.131608
v 0.082276 1.242476 0.131608
v 0.082276 0.741717 0.131608
v 0.085419 1.242476 -0.154845
v 0.082277 0.741717 -0.154845
v 0.911985 0.741717 -0.154845
v 0.911985 1.242476 -0.154845
v 0.078700 1.242476 0.029567
v 0.492376 0.741717 0.029567
v 0.078700 1.242476 -0.052803
v 0.492376 0.741717 -0.052803
v 0.492376 1.242476 0.029567
v 0.078700 0.741717 0.029567
v 0.078700 0.741717 -0.052803
v 0.492376 1.242476 -0.052803
v 0.108473 1.206368 0.023628
v 0.462492 0.777825 0.023628
v 0.108473 1.206368 -0.046864
v 0.462492 0.777825 -0.046864
v 0.462492 1.206368 0.023628
v 0.108473 0.777825 0.023628
v 0.108473 0.777825 -0.046864
v 0.462492 1.206368 -0.046864
v 0.268210 0.777825 0.004659
v 0.268210 0.777825 -0.027895
v 0.300764 0.777825 -0.027895
v 0.300764 0.777825 0.004659
v 0.268210 1.206368 0.004659
v 0.268210 1.206368 -0.027895
v 0.300764 1.206368 -0.027895
v 0.300764 1.206368 0.004659
v 0.911898 1.242476 0.029567
v 0.498222 0.741717 0.029567
v 0.911898 1.242476 -0.052803
v 0.498222 0.741717 -0.052803
v 0.498222 1.242476 0.029567
v 0.911898 0.741717 0.029567
v 0.911898 0.741717 -0.052803
v 0.498222 1.242476 -0.052803
v 0.882125 1.206368 0.023628
v 0.528106 0.777825 0.023628
v 0.882125 1.206368 -0.046864
v 0.528106 0.777825 -0.046864
v 0.528106 1.206368 0.023628
v 0.882125 0.777825 0.023628
v 0.882125 0.777825 -0.046864
v 0.528106 1.206368 -0.046864
v 0.722388 0.777825 0.004659
v 0.722388 0.777825 -0.027895
v 0.689834 0.777825 -0.027895
v 0.689834 0.777825 0.004659
v 0.722388 1.206368 0.004659
v 0.722388 1.206368 -0.027895
v 0.689834 1.206368 -0.027895
v 0.689834 1.206368 0.004659
vn -0.0000 -1.0000 -0.0000
vn 1.0000 -0.0000 -0.0000
vn 0.6438 -0.0000 0.7652
vn -0.0000 1.0000 -0.0000
vn -1.0000 -0.0000 -0.0000
vn -0.6926 -0.0000 -0.7213
vn -0.5908 0.5215 0.6156
vn 0.5174 0.5531 0.6529
vn -0.5672 0.5336 -0.6273
vn -0.7137 -0.0000 0.7005
vn -0.0000 -0.0000 1.0000
vn 0.6744 -0.0000 -0.7384
vn 0.5480 0.5420 -0.6371
vn -1.0000 -0.0034 -0.0000
vn -1.0000 -0.0042 -0.0000
vn -0.0000 0.7056 0.7086
vn -0.0000 0.7071 -0.7071
vn -0.0000 -0.0000 -1.0000
vn 1.0000 -0.0063 -0.0000
vn 1.0000 -0.0031 0.0055
vn -0.9999 -0.0000 -0.0110
vn -0.1949 -0.0000 0.9808
vn 0.1956 -0.0000 -0.9807
vn -0.0000 0.1623 -0.9867
vn -0.0000 -0.1623 -0.9867
vn -0.0000 -0.1623 0.9867
vn -0.1949 -0.0000 -0.9808
vn -0.0000 0.1623 0.9867
vn 0.1956 -0.0000 0.9807
vn 0.1949 -0.0000 0.9808
vn -0.1956 -0.0000 -0.9807
vn 0.1949 -0.0000 -0.9808
vn -0.1956 -0.0000 0.9807
vt 0.512133 0.844141
vt 0.512150 0.793754
vt 0.520490 0.801165
vt 0.520973 0.836496
vt 0.389953 0.640898
vt 0.389462 0.665437
vt 0.121430 0.665773
vt 0.121430 0.640131
vt 0.390772 0.673432
vt 0.121514 0.674205
vt 0.554168 0.731737
vt 0.554029 0.677466
vt 0.564822 0.685715
vt 0.564318 0.723769
vt 0.389428 0.584016
vt 0.389351 0.608488
vt 0.120875 0.608979
vt 0.120880 0.583561
vt 0.389898 0.615985
vt 0.120916 0.616759
vt 0.389945 0.576779
vt 0.392386 0.578476
vt 0.391491 0.585330
vt 0.394100 0.642240
vt 0.393539 0.664169
vt 0.395696 0.671835
vt 0.391468 0.607171
vt 0.392386 0.614319
vt 0.120913 0.576231
vt 0.065478 0.484134
vt 0.065373 0.790879
vt 0.024506 0.790865
vt 0.024611 0.484120
vt 0.121531 0.632338
vt 0.391195 0.633143
vt 0.396126 0.634816
vt 0.108713 0.677860
vt 0.109450 0.730987
vt 0.100068 0.723089
vt 0.099928 0.685829
vt 0.154729 0.798635
vt 0.154966 0.849019
vt 0.147479 0.841597
vt 0.146996 0.806266
vt 0.613156 0.484246
vt 0.612023 0.790989
vt 0.656059 0.484261
vt 0.655954 0.791004
vt 0.487876 0.844472
vt 0.487836 0.841545
vt 0.178071 0.848703
vt 0.178031 0.845776
vt 0.272039 0.844492
vt 0.271391 0.797042
vt 0.065371 0.798217
vt 0.024504 0.798203
vt 0.553637 0.731745
vt 0.521873 0.676426
vt 0.552759 0.676425
vt 0.611999 0.798326
vt 0.655952 0.798341
vt 0.451568 0.798272
vt 0.451571 0.790935
vt 0.137570 0.676445
vt 0.109417 0.731766
vt 0.108853 0.676446
vt 0.828791 0.253265
vt 0.828791 0.259256
vt 0.653331 0.259256
vt 0.653331 0.253265
vt 0.427879 0.693499
vt 0.509042 0.693499
vt 0.509042 0.715784
vt 0.427879 0.715784
vt 0.996925 0.253264
vt 0.996925 0.259255
vt 0.491814 0.715784
vt 0.411262 0.715784
vt 0.411262 0.693498
vt 0.491814 0.693498
vt 0.563691 0.751462
vt 0.563737 0.615435
vt 0.451675 0.484191
vt 0.451630 0.615397
vt 0.340143 0.615359
vt 0.285400 0.484134
vt 0.395889 0.795342
vt 0.396537 0.842792
vt 0.254408 0.676439
vt 0.254411 0.731759
vt 0.285292 0.798217
vt 0.285295 0.790879
vt 0.409143 0.731752
vt 0.409140 0.676432
vt 0.330547 0.693499
vt 0.330547 0.715785
vt 0.331155 0.715784
vt 0.331155 0.693498
vt 0.169885 0.693499
vt 0.249382 0.693499
vt 0.249382 0.715785
vt 0.169885 0.715785
vt 0.996925 0.003321
vt 0.919633 0.109538
vt 0.828792 0.110231
vt 0.828791 0.003321
vt 0.732407 0.220378
vt 0.828791 0.220378
vt 0.155162 0.381646
vt 0.000138 0.381646
vt 0.027560 0.365049
vt 0.155265 0.365049
vt 0.217851 0.273165
vt 0.373738 0.273165
vt 0.346369 0.289762
vt 0.217953 0.289762
vt 0.062827 0.273165
vt 0.090249 0.289762
vt 0.312231 0.381646
vt 0.284655 0.365049
vt 0.210067 0.299225
vt 0.398426 0.299225
vt 0.381829 0.326593
vt 0.226664 0.326593
vt 0.434427 0.417210
vt 0.246068 0.417210
vt 0.262664 0.389633
vt 0.417830 0.389633
vt 0.589147 0.715783
vt 0.589147 0.693498
vt 0.233822 0.715784
vt 0.153714 0.715784
vt 0.153714 0.693498
vt 0.233822 0.693498
vt 0.073160 0.715783
vt 0.073160 0.693498
vt 0.072549 0.693499
vt 0.072549 0.715784
vt -0.001412 0.190052
vt -0.001382 0.101291
vt 0.126323 0.101335
vt 0.126293 0.190096
vt -0.003571 0.015468
vt 0.151598 0.015466
vt 0.151593 0.104232
vt -0.003572 0.104229
vt 0.151558 0.193606
vt -0.003608 0.193606
vt -0.003608 0.104840
vt 0.151558 0.104840
vt 0.256243 0.010989
vt 0.256243 0.099755
vt 0.127835 0.101164
vt 0.126861 0.012409
vt 0.254739 0.101379
vt 0.255682 0.190141
vt 0.000138 0.102565
vt 0.000138 0.013799
vt 0.447800 0.264791
vt 0.259441 0.264791
vt 0.276038 0.237369
vt 0.431203 0.237369
vt 0.182446 0.297702
vt 0.370809 0.297702
vt 0.354384 0.325019
vt 0.199215 0.325019
vt 0.159813 0.440374
vt 0.004789 0.440374
vt 0.032210 0.423777
vt 0.159915 0.423777
vt 0.093831 0.210978
vt 0.250900 0.210978
vt 0.223324 0.227575
vt 0.093934 0.227575
vt 0.089180 0.243353
vt 0.243022 0.243353
vt 0.243124 0.259950
vt 0.116394 0.259950
vt 0.315700 0.440374
vt 0.288332 0.423777
vt 0.238866 0.004793
vt 0.402928 0.004793
vt 0.402928 0.028084
vt 0.238866 0.028084
vt 0.319218 0.028084
vt 0.155155 0.028084
vt 0.155155 0.004793
vt 0.319218 0.004793
vt 0.375555 0.004793
vt 0.375555 0.028084
vt 0.176955 0.028084
vt 0.176955 0.004793
vt 0.268726 0.119602
vt 0.438685 0.119654
vt 0.438676 0.144252
vt 0.268716 0.144201
vt 0.101305 0.144200
vt 0.101305 0.119602
vt 0.241708 0.119602
vt 0.241708 0.144200
vt 0.314567 0.119602
vt 0.314567 0.144200
vt 0.174164 0.144200
vt 0.174164 0.119602
vt 0.058703 0.095235
vt 0.257302 0.095235
vt 0.242982 0.107319
vt 0.073023 0.107319
vt 0.052633 0.067353
vt 0.251232 0.067353
vt 0.236912 0.079394
vt 0.066953 0.079394
vt 0.299515 0.230800
vt 0.135451 0.230800
vt 0.147259 0.216288
vt 0.287663 0.216288
vt 0.164905 0.274415
vt 0.328969 0.274415
vt 0.317117 0.288927
vt 0.176713 0.288927
vt 0.228661 0.349140
vt 0.064598 0.349140
vt 0.076406 0.334628
vt 0.216809 0.334628
vt 0.250993 0.172427
vt 0.052394 0.172427
vt 0.066714 0.160343
vt 0.236672 0.160343
vt 0.171106 0.304638
vt 0.335169 0.304638
vt 0.323317 0.319151
vt 0.182913 0.319151
vt 0.198405 0.144200
vt 0.028446 0.144200
vt 0.028446 0.119602
vt 0.198405 0.119602
vt 0.291386 0.380660
vt 0.293847 0.374260
vt 0.167529 0.374260
vt 0.165069 0.380659
vt 0.291386 0.374012
vt 0.165069 0.374012
vt 0.291386 0.383608
vt 0.165069 0.383608
vt 0.291386 0.371064
vt 0.165069 0.371064
vt 0.304027 0.076164
vt 0.379980 0.076164
vt 0.379980 0.152118
vt 0.304027 0.152118
vt 0.304027 0.076024
vt 0.304027 0.000070
vt 0.379980 0.000070
vt 0.379980 0.076024
vt 0.414216 0.133328
vt 0.215617 0.133328
vt 0.229937 0.121287
vt 0.399896 0.121287
vt 0.017013 0.028084
vt 0.017013 0.004793
vt 0.215613 0.004793
vt 0.215613 0.028084
vt 0.732407 0.110232
vt 0.653331 0.003321
vt 0.918941 0.220377
vt 0.340096 0.750537
vt 0.451584 0.750575
s 0
usemtl Material.001
f 22/1/1 24/2/1 5/3/1 6/4/1
f 14/5/2 15/6/2 6/7/2 5/8/2
f 23/9/3 22/10/3 6/7/3 15/6/3
f 26/11/4 21/12/4 8/13/4 7/14/4
f 16/15/5 17/16/5 10/17/5 9/18/5
f 27/19/6 28/20/6 10/17/6 17/16/6
f 20/21/7 19/22/7 11/23/7 16/15/7
f 7/24/2 8/25/2 15/6/2 14/5/2
f 21/26/8 23/9/8 15/6/8 8/25/8
f 11/23/5 12/27/5 17/16/5 16/15/5
f 29/28/9 27/19/9 17/16/9 12/27/9
f 18/29/10 20/21/10 16/15/10 9/18/10
f 30/30/11 31/31/11 20/32/11 18/33/11
f 24/34/12 25/35/12 14/5/12 5/8/12
f 25/35/13 26/36/13 7/24/13 14/5/13
f 19/37/4 29/38/4 12/39/4 11/40/4
f 28/41/1 18/42/1 9/43/1 10/44/1
f 32/45/14 37/46/14 35/46/14 36/45/14
f 37/46/11 32/45/11 22/47/11 23/48/11
f 31/31/2 30/30/2 34/30/2 38/31/2
f 32/49/1 36/50/1 24/2/1 22/1/1
f 30/51/1 18/42/1 28/41/1 34/52/1
f 1/53/1 34/52/1 28/41/1 2/54/1
f 31/31/2 38/31/2 39/31/2
f 35/46/15 37/46/15 40/46/15
f 31/31/16 39/55/16 19/56/16 20/32/16
f 26/57/4 40/58/4 21/59/4
f 40/60/16 37/46/16 23/48/16 21/61/16
f 4/62/11 33/63/11 35/46/11 40/60/11
f 39/64/4 29/65/4 19/66/4
f 13/67/17 3/68/17 26/69/17 25/70/17
f 57/71/4 44/72/4 48/73/4 63/74/4
f 3/68/17 13/67/17 27/75/17 29/76/17
f 50/77/1 41/78/1 45/79/1 54/80/1
f 35/46/11 50/81/11 49/82/11 36/45/11
f 1/83/11 42/84/11 52/85/11 34/86/11
f 2/87/1 24/2/1 36/50/1 1/88/1
f 4/89/4 3/90/4 29/65/4 39/64/4
f 33/63/11 4/62/11 39/91/11 38/92/11
f 3/93/4 4/94/4 40/58/4 26/57/4
f 58/95/5 57/71/5 63/74/5 64/96/5
f 41/78/1 51/97/1 59/98/1 45/79/1
f 55/99/1 43/100/1 47/101/1 61/102/1
f 28/103/18 56/104/18 44/105/18 2/106/18
f 25/70/18 58/107/18 43/108/18 13/67/18
f 43/100/1 58/95/1 64/96/1 47/101/1
f 48/109/18 62/110/18 74/111/18 68/112/18
f 46/113/11 53/114/11 69/115/11 66/116/11
f 60/117/11 46/113/11 66/116/11 72/118/11
f 63/119/18 48/109/18 68/112/18 75/120/18
f 53/121/11 54/122/11 70/123/11 69/124/11
f 64/125/18 63/126/18 75/127/18 76/128/18
f 49/129/5 50/77/5 54/80/5 53/130/5
f 44/72/4 56/130/4 62/129/4 48/73/4
f 52/131/4 42/132/4 46/133/4 60/134/4
f 42/132/4 49/135/4 53/136/4 46/133/4
f 56/137/19 55/99/19 61/102/19 62/138/19
f 51/97/2 52/131/2 60/134/2 59/98/2
f 74/139/4 72/140/4 66/141/4 68/142/4
f 74/143/20 73/144/20 71/145/20 72/146/20
f 76/147/21 75/148/21 69/149/21 70/150/21
f 76/151/1 70/152/1 65/153/1 67/154/1
f 68/142/4 66/141/4 69/155/4 75/156/4
f 67/154/1 65/153/1 71/157/1 73/158/1
f 59/159/11 60/160/11 72/161/11 71/162/11
f 62/163/18 61/164/18 73/165/18 74/166/18
f 45/167/11 59/168/11 71/169/11 65/170/11
f 47/171/18 64/172/18 76/173/18 67/174/18
f 61/175/18 47/176/18 67/177/18 73/178/18
f 54/179/11 45/167/11 65/170/11 70/180/11
f 83/181/1 80/182/1 78/183/1 82/184/1
f 84/185/4 79/186/4 77/187/4 81/188/4
f 84/189/2 81/190/2 78/191/2 80/192/2
f 91/193/2 87/194/2 85/195/2 90/196/2
f 91/197/4 90/198/4 86/199/4 88/200/4
f 92/201/1 89/202/1 85/203/1 87/204/1
f 78/205/22 81/206/22 89/207/22 86/208/22
f 83/209/23 79/210/23 87/211/23 91/212/23
f 80/213/24 83/214/24 91/215/24 88/216/24
f 79/217/25 84/218/25 92/219/25 87/220/25
f 81/221/26 77/222/26 85/223/26 89/224/26
f 84/225/27 80/226/27 88/227/27 92/228/27
f 82/229/28 78/230/28 86/231/28 90/232/28
f 92/233/5 88/234/5 86/235/5 89/236/5
f 97/237/5 98/238/5 94/239/5 93/240/5
f 98/238/18 99/241/18 95/242/18 94/239/18
f 99/241/2 100/243/2 96/244/2 95/242/2
f 100/245/11 97/237/11 93/240/11 96/246/11
f 93/247/1 94/248/1 95/249/1 96/250/1
f 100/251/4 99/252/4 98/253/4 97/254/4
f 77/255/29 82/256/29 90/257/29 85/258/29
f 83/259/5 82/260/5 77/261/5 79/262/5
f 107/181/1 106/184/1 102/183/1 104/182/1
f 108/185/4 105/188/4 101/187/4 103/186/4
f 108/189/5 104/192/5 102/191/5 105/190/5
f 115/193/5 114/196/5 109/195/5 111/194/5
f 115/197/4 112/200/4 110/199/4 114/198/4
f 116/201/1 111/204/1 109/203/1 113/202/1
f 102/205/30 110/208/30 113/207/30 105/206/30
f 107/209/31 115/212/31 111/211/31 103/210/31
f 104/213/24 112/216/24 115/215/24 107/214/24
f 103/217/25 111/220/25 116/219/25 108/218/25
f 105/221/26 113/224/26 109/223/26 101/222/26
f 108/225/32 116/228/32 112/227/32 104/226/32
f 106/229/28 114/232/28 110/231/28 102/230/28
f 116/233/2 113/236/2 110/235/2 112/234/2
f 121/237/2 117/240/2 118/239/2 122/238/2
f 122/238/18 118/239/18 119/242/18 123/241/18
f 123/241/5 119/242/5 120/244/5 124/243/5
f 124/245/11 120/246/11 117/240/11 121/237/11
f 117/247/1 120/250/1 119/249/1 118/248/1
f 124/251/4 121/254/4 122/253/4 123/252/4
f 101/255/33 109/258/33 114/257/33 106/256/33
f 107/259/2 103/262/2 101/261/2 106/260/2
f 2/106/18 44/105/18 57/263/18 24/264/18
f 24/264/18 57/263/18 58/107/18 25/70/18
f 13/67/18 43/108/18 55/265/18 27/75/18
f 27/75/18 55/265/18 56/104/18 28/103/18
f 38/92/11 51/266/11 41/267/11 33/63/11
f 34/86/11 52/85/11 51/266/11 38/92/11
f 33/63/11 41/267/11 50/81/11 35/46/11
f 36/45/11 49/82/11 42/84/11 1/83/11
