# Blender 5.0.1
# www.blender.org
mtllib Cabin_Wall_Small.mtl
o LowPoly_Cube
v 0.230548 0.100000 0.176692
v 0.225837 1.499854 0.176692
v 0.494055 0.100000 -0.140208
v 0.494055 0.100000 0.140217
v 0.494055 1.499854 -0.123846
v 0.494055 1.499854 0.123922
v -0.494081 0.100000 0.140217
v -0.494081 0.100000 -0.140208
v -0.494081 1.499854 0.123922
v -0.494081 1.499854 -0.123846
v 0.494055 1.476523 -0.140208
v 0.494055 1.476523 0.140217
v -0.494081 1.476523 0.140217
v -0.494081 1.476523 -0.140208
v -0.435472 0.100000 0.199927
v -0.435472 1.499854 0.176692
v -0.435472 1.476523 0.199927
v 0.423080 1.499854 0.176692
v 0.423080 0.100000 0.199927
v 0.423080 1.476523 0.199927
v 0.428672 0.100000 -0.199927
v 0.428672 1.476523 -0.199927
v 0.428672 1.499854 -0.176596
v -0.431892 1.476523 -0.199927
v -0.431892 0.100000 -0.199927
v -0.431892 1.499854 -0.176596
v -0.252081 0.100000 0.199927
v -0.252081 1.476523 0.199927
v 0.230548 0.100000 0.199927
v -0.252081 0.100000 0.176692
v 0.225936 1.476523 0.176692
v 0.225936 1.476523 0.199927
v -0.252081 1.476523 0.176692
v -0.252081 1.499854 0.176692
vn -0.0000 -1.0000 -0.0000
vn 1.0000 -0.0000 -0.0000
vn 0.6438 -0.0000 0.7652
vn -0.0000 1.0000 -0.0000
vn -1.0000 -0.0000 -0.0000
vn -0.6926 -0.0000 -0.7213
vn -0.5908 0.5215 0.6156
vn 0.5174 0.5531 0.6529
vn -0.5672 0.5336 -0.6273
vn -0.7137 -0.0000 0.7005
vn -0.0000 -0.0000 1.0000
vn 0.6744 -0.0000 -0.7384
vn 0.5480 0.5420 -0.6371
vn -0.0000 0.7056 0.7086
vn -1.0000 -0.0042 -0.0000
vn -0.0000 0.7071 -0.7071
vn -0.0000 -0.0000 -1.0000
vn -1.0000 -0.0034 -0.0000
vt 0.271899 0.844141
vt 0.271915 0.793754
vt 0.280256 0.801165
vt 0.280738 0.836496
vt 0.389953 0.640898
vt 0.389462 0.665437
vt 0.121430 0.665773
vt 0.121430 0.640131
vt 0.390772 0.673432
vt 0.121514 0.674205
vt 0.254411 0.731759
vt 0.284517 0.676720
vt 0.289997 0.689150
vt 0.267145 0.729671
vt 0.389428 0.584016
vt 0.389351 0.608488
vt 0.120875 0.608979
vt 0.120880 0.583561
vt 0.389898 0.615985
vt 0.120916 0.616759
vt 0.389945 0.576779
vt 0.392386 0.578476
vt 0.391491 0.585330
vt 0.394100 0.642240
vt 0.393539 0.664169
vt 0.395696 0.671835
vt 0.391468 0.607171
vt 0.392386 0.614319
vt 0.120913 0.576231
vt 0.065478 0.484134
vt 0.065373 0.790879
vt 0.024506 0.790865
vt 0.024611 0.484120
vt 0.121531 0.632338
vt 0.391195 0.633143
vt 0.396126 0.634816
vt 0.108853 0.676446
vt 0.109696 0.731618
vt 0.100068 0.723089
vt 0.099928 0.685829
vt 0.154729 0.798635
vt 0.154966 0.849019
vt 0.147479 0.841597
vt 0.146996 0.806266
vt 0.612023 0.790989
vt 0.613156 0.484246
vt 0.656059 0.484261
vt 0.655954 0.791004
vt 0.178071 0.848703
vt 0.178031 0.845776
vt 0.065371 0.798217
vt 0.024504 0.798203
vt 0.137570 0.676445
vt 0.109417 0.731766
vt 0.247739 0.844184
vt 0.271779 0.793942
vt 0.254408 0.676439
vt 0.611999 0.798326
vt 0.655952 0.798341
vt 0.811214 0.259255
vt 0.811214 0.253264
vt 0.996925 0.253264
vt 0.996925 0.259255
vt 0.811213 0.003321
vt 0.996925 0.003321
vt 0.451675 0.484191
vt 0.451570 0.790936
vt 0.285295 0.790879
vt 0.285400 0.484134
vt 0.451567 0.798273
vt 0.285292 0.798217
vt 0.247642 0.844472
vt 0.247602 0.841545
s 0
usemtl Material.001
f 19/1/1 21/2/1 3/3/1 4/4/1
f 11/5/2 12/6/2 4/7/2 3/8/2
f 20/9/3 19/10/3 4/7/3 12/6/3
f 23/11/4 18/12/4 6/13/4 5/14/4
f 13/15/5 14/16/5 8/17/5 7/18/5
f 24/19/6 25/20/6 8/17/6 14/16/6
f 17/21/7 16/22/7 9/23/7 13/15/7
f 5/24/2 6/25/2 12/6/2 11/5/2
f 18/26/8 20/9/8 12/6/8 6/25/8
f 9/23/5 10/27/5 14/16/5 13/15/5
f 26/28/9 24/19/9 14/16/9 10/27/9
f 15/29/10 17/21/10 13/15/10 7/18/10
f 27/30/11 28/31/11 17/32/11 15/33/11
f 21/34/12 22/35/12 11/5/12 3/8/12
f 22/35/13 23/36/13 5/24/13 11/5/13
f 16/37/4 26/38/4 10/39/4 9/40/4
f 25/41/1 15/42/1 7/43/1 8/44/1
f 32/45/11 29/46/11 19/47/11 20/48/11
f 28/31/2 27/30/2 30/30/2 33/31/2
f 27/49/1 15/42/1 25/41/1 30/50/1
f 28/31/2 33/31/2 34/31/2
f 28/31/14 34/51/14 16/52/14 17/32/14
f 34/53/4 26/54/4 16/37/4
f 1/55/1 30/50/1 25/41/1 21/56/1
f 31/45/15 32/45/15 2/45/15
f 23/11/4 2/57/4 18/12/4
f 2/58/14 32/45/14 20/48/14 18/59/14
f 23/60/16 22/61/16 24/62/16 26/63/16
f 22/61/17 21/64/17 25/65/17 24/62/17
f 1/66/11 31/67/11 33/68/11 30/69/11
f 2/57/4 23/11/4 26/54/4 34/53/4
f 31/67/11 2/70/11 34/71/11 33/68/11
f 29/46/18 32/45/18 31/45/18 1/46/18
f 29/72/1 1/73/1 21/2/1 19/1/1
