# Blender 5.0.1
# www.blender.org
mtllib Cabin_Bar.mtl
o Bar_Cube.001
v -0.495000 0.000000 0.250000
v -0.495000 -0.000000 -0.250000
v 0.495000 -0.000000 -0.250000
v 0.495000 0.000000 0.250000
v -0.495000 0.600000 0.250000
v -0.495000 0.600000 -0.250000
v 0.495000 0.600000 -0.250000
v 0.495000 0.600000 0.250000
v -0.495000 0.600000 0.300000
v -0.495000 0.600000 -0.300000
v 0.495000 0.600000 -0.300000
v 0.495000 0.600000 0.300000
v -0.495000 0.700000 0.300000
v -0.495000 0.700000 -0.300000
v 0.495000 0.700000 -0.300000
v 0.495000 0.700000 0.300000
vn -1.0000 -0.0000 -0.0000
vn -0.0000 -0.0000 -1.0000
vn 1.0000 -0.0000 -0.0000
vn -0.0000 -0.0000 1.0000
vn -0.0000 -1.0000 -0.0000
vn -0.0000 1.0000 -0.0000
vt 0.428872 0.576931
vt 0.296002 0.576931
vt 0.296002 0.410087
vt 0.428871 0.410087
vt 0.136559 0.576931
vt 0.136559 0.410087
vt 0.003689 0.576931
vt 0.003689 0.410087
vt 0.588315 0.576931
vt 0.588315 0.410087
vt 0.141759 0.729279
vt 0.141759 0.589641
vt 0.384493 0.589641
vt 0.384493 0.729279
vt 0.404506 0.590290
vt 0.404506 0.731234
vt 0.141432 0.731234
vt 0.141432 0.590290
vt 0.091277 0.355370
vt 0.091277 0.356665
vt 0.049472 0.356665
vt 0.049472 0.355370
vt 0.091277 0.191945
vt 0.049472 0.191946
vt 0.091277 0.357304
vt 0.049472 0.357304
vt 0.091277 0.190012
vt 0.049472 0.190012
vt 0.143999 0.731395
vt 0.143999 0.588624
vt 0.406860 0.588624
vt 0.406860 0.731395
vt 0.006562 0.096767
vt 0.116121 0.096767
vt 0.116121 0.302226
vt 0.006562 0.302226
s 0
usemtl None
f 5/1/1 6/2/1 2/3/1 1/4/1
f 6/2/2 7/5/2 3/6/2 2/3/2
f 7/5/3 8/7/3 4/8/3 3/6/3
f 8/9/4 5/1/4 1/4/4 4/10/4
f 1/11/5 2/12/5 3/13/5 4/14/5
f 8/15/6 7/16/6 6/17/6 5/18/6
f 13/19/1 14/20/1 10/21/1 9/22/1
f 14/20/2 15/23/2 11/24/2 10/21/2
f 15/23/3 16/25/3 12/26/3 11/24/3
f 16/27/4 13/19/4 9/22/4 12/28/4
f 9/29/5 10/30/5 11/31/5 12/32/5
f 16/33/6 15/34/6 14/35/6 13/36/6
