# Blender v2.90.0 OBJ File: ''
# www.blender.org
mtllib Cheese_Wheel_3_4.mtl
o Cheese_Wheel_3_4
v 0.124902 0.119786 0.087457
v 0.111984 0.157858 0.078412
v 0.089910 0.157858 0.102501
v 0.100038 0.119786 0.114591
v 0.143281 0.119786 0.052150
v 0.128462 0.157858 0.046757
v 0.151896 0.119786 0.013289
v 0.136187 0.157858 0.011915
v 0.128462 0.157858 0.046757
v 0.143281 0.119786 0.052150
v 0.150160 0.119786 -0.026477
v 0.134630 0.157858 -0.023739
v 0.138191 0.119786 -0.064439
v 0.123899 0.157858 -0.057775
v 0.116804 0.119786 -0.098010
v 0.104724 0.157858 -0.087873
v 0.087457 0.119786 -0.124902
v 0.078412 0.157858 -0.111984
v 0.052150 0.119786 -0.143281
v 0.046757 0.157858 -0.128462
v 0.013289 0.119786 -0.151896
v 0.011915 0.157858 -0.136187
v -0.026477 0.119786 -0.150160
v -0.023739 0.157858 -0.134630
v -0.064439 0.119786 -0.138191
v -0.057775 0.157858 -0.123899
v -0.023739 0.157858 -0.134630
v -0.026477 0.119786 -0.150160
v -0.098010 0.119786 -0.116804
v -0.087873 0.157858 -0.104724
v -0.124902 0.119786 -0.087457
v -0.111984 0.157858 -0.078412
v -0.143281 0.119786 -0.052150
v -0.128462 0.157858 -0.046757
v -0.151896 0.119786 -0.013289
v -0.136187 0.157858 -0.011915
v -0.150160 0.119786 0.026477
v -0.134630 0.157858 0.023739
v -0.139094 0.119786 0.061576
v -0.124805 0.157858 0.054899
v 0.129308 0.078930 0.090542
v 0.103495 0.078930 0.118712
v 0.148336 0.078930 0.053990
v 0.157255 0.078930 0.013758
v 0.148336 0.078930 0.053990
v 0.155457 0.078930 -0.027411
v 0.143066 0.078930 -0.066713
v 0.120924 0.078930 -0.101468
v 0.090542 0.078930 -0.129308
v 0.053990 0.078930 -0.148336
v 0.013758 0.078930 -0.157255
v -0.027411 0.078930 -0.155457
v -0.066713 0.078930 -0.143066
v -0.027411 0.078930 -0.155457
v -0.101467 0.078930 -0.120924
v -0.129308 0.078930 -0.090542
v -0.148336 0.078930 -0.053990
v -0.157255 0.078930 -0.013758
v -0.155457 0.078930 0.027411
v -0.143968 0.078930 0.063851
v 0.124902 0.038074 0.087457
v 0.100038 0.038074 0.114591
v 0.143281 0.038074 0.052150
v 0.151896 0.038074 0.013289
v 0.143281 0.038074 0.052150
v 0.150160 0.038074 -0.026477
v 0.138191 0.038074 -0.064439
v 0.116804 0.038074 -0.098010
v 0.087457 0.038074 -0.124902
v 0.052150 0.038074 -0.143281
v 0.013289 0.038074 -0.151896
v -0.026477 0.038074 -0.150160
v -0.064439 0.038074 -0.138191
v -0.026477 0.038074 -0.150160
v -0.098010 0.038074 -0.116804
v -0.124902 0.038074 -0.087457
v -0.143281 0.038074 -0.052150
v -0.151896 0.038074 -0.013289
v -0.150160 0.038074 0.026477
v -0.139094 0.038074 0.061576
v 0.111984 0.000002 0.078412
v 0.089910 0.000002 0.102501
v 0.128462 0.000002 0.046757
v 0.136187 0.000002 0.011915
v 0.128462 0.000002 0.046757
v 0.134630 0.000002 -0.023739
v 0.123899 0.000002 -0.057775
v 0.104724 0.000002 -0.087873
v 0.078412 0.000002 -0.111984
v 0.046757 0.000002 -0.128462
v 0.011915 0.000002 -0.136187
v -0.023739 0.000002 -0.134630
v -0.057775 0.000002 -0.123899
v -0.023739 0.000002 -0.134630
v -0.087873 0.000002 -0.104724
v -0.111984 0.000002 -0.078412
v -0.128462 0.000002 -0.046757
v -0.136187 0.000002 -0.011915
v -0.134630 0.000002 0.023739
v -0.124805 0.000002 0.054899
v -0.134630 0.157858 0.023739
v -0.124805 0.157858 0.054899
v 0.000818 0.157858 -0.003692
v -0.136187 0.157858 -0.011915
v -0.128462 0.157858 -0.046757
v -0.111984 0.157858 -0.078412
v -0.087873 0.157858 -0.104724
v -0.057775 0.157858 -0.123899
v -0.023739 0.157858 -0.134630
v 0.011915 0.157858 -0.136187
v 0.046757 0.157858 -0.128462
v 0.078412 0.157858 -0.111984
v 0.104724 0.157858 -0.087873
v 0.123899 0.157858 -0.057775
v 0.134630 0.157858 -0.023739
v 0.136187 0.157858 0.011915
v 0.128462 0.157858 0.046757
v 0.111984 0.157858 0.078412
v 0.089910 0.157858 0.102501
v 0.111984 0.000002 0.078412
v 0.089910 0.000002 0.102501
v 0.000818 0.000002 -0.003692
v 0.128462 0.000002 0.046757
v 0.136187 0.000002 0.011915
v 0.134630 0.000002 -0.023739
v 0.078412 0.000002 -0.111984
v 0.046757 0.000002 -0.128462
v 0.011915 0.000002 -0.136187
v -0.023739 0.000002 -0.134630
v -0.057775 0.000002 -0.123899
v -0.087873 0.000002 -0.104724
v -0.111984 0.000002 -0.078412
v -0.128462 0.000002 -0.046757
v -0.136187 0.000002 -0.011915
v -0.134630 0.000002 0.023739
v -0.124805 0.000002 0.054899
v 0.001928 0.154858 0.002298
v 0.001928 0.003002 0.002298
v 0.086585 0.003002 0.103188
v 0.096131 0.038857 0.114565
v 0.099523 0.078930 0.118606
v 0.096131 0.119003 0.114565
v 0.086585 0.154858 0.103188
v -0.122082 0.154858 0.056928
v -0.135542 0.119003 0.063204
v -0.140323 0.078930 0.065434
v -0.135542 0.038857 0.063204
v -0.122082 0.003002 0.056928
v -0.002719 0.003002 0.001268
v -0.002719 0.154858 0.001268
v 0.000818 0.157858 -0.003692
v 0.000818 0.000002 -0.003692
v 0.089910 0.157858 0.102501
v 0.100038 0.119786 0.114591
v -0.139094 0.119786 0.061576
v -0.124805 0.157858 0.054899
v 0.103495 0.078930 0.118712
v -0.143968 0.078930 0.063851
v 0.100038 0.038074 0.114591
v -0.139094 0.038074 0.061576
v 0.089910 0.000002 0.102501
v -0.124805 0.000002 0.054899
v 0.089910 0.000002 0.102501
vt 0.108643 0.064941
vt 0.108643 0.000000
vt 0.208130 0.000000
vt 0.209106 0.064941
vt 0.000000 0.064941
vt 0.000000 0.000000
vt 0.760254 0.064941
vt 0.760254 0.000000
vt 0.869141 0.000000
vt 0.869141 0.064941
vt 0.651855 0.064941
vt 0.651855 0.000000
vt 0.542969 0.064941
vt 0.542969 0.000000
vt 0.434570 0.064941
vt 0.434570 0.000000
vt 0.325928 0.064941
vt 0.325928 0.000000
vt 0.217285 0.064941
vt 0.217285 0.000000
vt 0.108643 0.064941
vt 0.108643 0.000000
vt 0.000000 0.064941
vt 0.000000 0.000000
vt 0.760254 0.064941
vt 0.760254 0.000000
vt 0.869141 0.000000
vt 0.869141 0.064941
vt 0.651855 0.064941
vt 0.651855 0.000000
vt 0.542969 0.064941
vt 0.542969 0.000000
vt 0.434570 0.064941
vt 0.434570 0.000000
vt 0.325928 0.064941
vt 0.325928 0.000000
vt 0.217285 0.064941
vt 0.217285 0.000000
vt 0.116821 0.064941
vt 0.117798 0.000000
vt 0.108643 0.129883
vt 0.209351 0.129883
vt 0.000000 0.129883
vt 0.760254 0.129883
vt 0.869141 0.129883
vt 0.651855 0.129883
vt 0.542969 0.129883
vt 0.434570 0.129883
vt 0.325928 0.129883
vt 0.217285 0.129883
vt 0.108643 0.129883
vt 0.000000 0.129883
vt 0.760254 0.129883
vt 0.869141 0.129883
vt 0.651855 0.129883
vt 0.542969 0.129883
vt 0.434570 0.129883
vt 0.325928 0.129883
vt 0.217285 0.129883
vt 0.116577 0.129883
vt 0.108643 0.194336
vt 0.209106 0.194336
vt 0.000000 0.194336
vt 0.760254 0.194336
vt 0.869141 0.194336
vt 0.651855 0.194336
vt 0.542969 0.194336
vt 0.434570 0.194336
vt 0.325928 0.194336
vt 0.217285 0.194336
vt 0.108643 0.194336
vt 0.000000 0.194336
vt 0.760254 0.194336
vt 0.869141 0.194336
vt 0.651855 0.194336
vt 0.542969 0.194336
vt 0.434570 0.194336
vt 0.325928 0.194336
vt 0.217285 0.194336
vt 0.116821 0.194336
vt 0.108643 0.259277
vt 0.208130 0.259277
vt 0.000000 0.259277
vt 0.760254 0.259277
vt 0.869141 0.259277
vt 0.651855 0.259277
vt 0.542969 0.259277
vt 0.434570 0.259277
vt 0.325928 0.259277
vt 0.217285 0.259277
vt 0.108643 0.259277
vt 0.000000 0.259277
vt 0.760254 0.259277
vt 0.869141 0.259277
vt 0.651855 0.259277
vt 0.542969 0.259277
vt 0.434570 0.259277
vt 0.325928 0.259277
vt 0.217285 0.259277
vt 0.117798 0.259277
vt 0.235474 0.630615
vt 0.165161 0.595459
vt 0.500000 0.467285
vt 0.329590 0.657715
vt 0.434570 0.671875
vt 0.542969 0.671875
vt 0.647949 0.657715
vt 0.742188 0.630615
vt 0.818848 0.592285
vt 0.873535 0.545166
vt 0.901367 0.492676
vt 0.901367 0.438477
vt 0.873535 0.385742
vt 0.818848 0.338867
vt 0.742188 0.300293
vt 0.647949 0.273438
vt 0.542969 0.259277
vt 0.434570 0.259277
vt 0.338379 0.271973
vt 0.873535 0.385742
vt 0.898926 0.434082
vt 0.480713 0.461426
vt 0.818848 0.338867
vt 0.742188 0.300293
vt 0.647949 0.273438
vt 0.329590 0.273438
vt 0.235474 0.300293
vt 0.158691 0.338867
vt 0.104370 0.385742
vt 0.076294 0.438477
vt 0.076294 0.492676
vt 0.104370 0.545166
vt 0.158691 0.592285
vt 0.235474 0.630615
vt 0.329590 0.657715
vt 0.425781 0.670654
vt 0.515625 0.928223
vt 0.515625 0.695801
vt 0.918457 0.695801
vt 0.963867 0.750732
vt 0.979980 0.812012
vt 0.963867 0.873413
vt 0.918457 0.928223
vt 0.108215 0.928223
vt 0.064331 0.873413
vt 0.048767 0.812012
vt 0.064331 0.750732
vt 0.108215 0.695801
vt 0.497559 0.695801
vt 0.497559 0.928223
vt 0.506348 0.935425
vt 0.506348 0.689209
vt 0.923340 0.935120
vt 0.975586 0.875061
vt 0.052673 0.875061
vt 0.103455 0.935120
vt 0.992188 0.812012
vt 0.036621 0.812012
vt 0.975586 0.749023
vt 0.052673 0.749023
vt 0.927246 0.689453
vt 0.103455 0.689209
vt 0.923340 0.689209
vn 0.7944 0.2538 0.5518
vn 0.4844 0.8067 0.3385
vn 0.1011 0.7726 0.6268
vn 0.3768 0.2462 0.8930
vn 0.9102 0.2529 0.3282
vn 0.5565 0.8052 0.2048
vn 0.9635 0.2540 0.0843
vn 0.5916 0.8046 0.0517
vn 0.5564 0.8052 0.2048
vn 0.9102 0.2529 0.3281
vn 0.9533 0.2529 -0.1651
vn 0.5836 0.8052 -0.1051
vn 0.8782 0.2538 -0.4055
vn 0.5358 0.8067 -0.2492
vn 0.7433 0.2545 -0.6186
vn 0.4568 0.8051 -0.3782
vn 0.5579 0.2543 -0.7900
vn 0.3439 0.8077 -0.4789
vn 0.3344 0.2539 -0.9076
vn 0.2104 0.8071 -0.5517
vn 0.0898 0.2554 -0.9627
vn 0.0570 0.8072 -0.5875
vn -0.1612 0.2545 -0.9535
vn -0.1004 0.8085 -0.5799
vn -0.4034 0.2557 -0.8785
vn -0.2453 0.8104 -0.5321
vn -0.6183 0.2564 -0.7429
vn -0.3749 0.8089 -0.4529
vn -0.7907 0.2562 -0.5560
vn -0.4759 0.8113 -0.3394
vn -0.9086 0.2554 -0.3306
vn -0.5488 0.8104 -0.2051
vn -0.9628 0.2567 -0.0842
vn -0.5844 0.8099 -0.0511
vn -0.9521 0.2555 0.1678
vn -0.5761 0.8104 0.1067
vn -0.7133 0.2488 0.6552
vn -0.3427 0.7761 0.5293
vn 0.8209 -0.0039 0.5710
vn 0.4041 -0.0039 0.9147
vn 0.9413 -0.0039 0.3375
vn 0.9962 -0.0039 0.0872
vn 0.9856 -0.0039 -0.1690
vn 0.9076 -0.0039 -0.4198
vn 0.7685 -0.0039 -0.6398
vn 0.5772 -0.0039 -0.8166
vn 0.3439 -0.0039 -0.9390
vn 0.0927 -0.0039 -0.9957
vn -0.1651 -0.0039 -0.9863
vn -0.4180 -0.0039 -0.9085
vn -0.6398 -0.0039 -0.7685
vn -0.8177 -0.0040 -0.5756
vn -0.9403 -0.0040 -0.3402
vn -0.9962 -0.0039 -0.0872
vn -0.9851 -0.0039 0.1718
vn -0.7480 -0.0039 0.6637
vn 0.7928 -0.2611 0.5507
vn 0.3761 -0.2535 0.8912
vn 0.9083 -0.2601 0.3275
vn 0.9616 -0.2613 0.0841
vn 0.9514 -0.2601 -0.1648
vn 0.8764 -0.2611 -0.4047
vn 0.7418 -0.2618 -0.6174
vn 0.5568 -0.2616 -0.7884
vn 0.3337 -0.2611 -0.9058
vn 0.0896 -0.2627 -0.9607
vn -0.1609 -0.2618 -0.9516
vn -0.4026 -0.2630 -0.8768
vn -0.1608 -0.2618 -0.9516
vn -0.6170 -0.2638 -0.7414
vn -0.7891 -0.2636 -0.5549
vn -0.9067 -0.2628 -0.3299
vn -0.9608 -0.2641 -0.0841
vn -0.9502 -0.2628 0.1675
vn -0.7119 -0.2562 0.6539
vn 0.4813 -0.8095 0.3363
vn 0.1004 -0.7757 0.6231
vn 0.5529 -0.8080 0.2035
vn 0.5879 -0.8073 0.0514
vn 0.5799 -0.8080 -0.1044
vn 0.5324 -0.8095 -0.2476
vn 0.4539 -0.8079 -0.3758
vn 0.3417 -0.8104 -0.4759
vn 0.2090 -0.8098 -0.5482
vn 0.0566 -0.8099 -0.5838
vn -0.0998 -0.8112 -0.5762
vn -0.2437 -0.8131 -0.5287
vn -0.3725 -0.8116 -0.4500
vn -0.4729 -0.8140 -0.3372
vn -0.5454 -0.8130 -0.2038
vn -0.5807 -0.8125 -0.0508
vn -0.5725 -0.8130 0.1060
vn -0.3406 -0.7792 0.5261
vn -0.0323 0.9837 0.1766
vn -0.5488 0.8104 -0.2052
vn -0.4760 0.8113 -0.3394
vn 0.3440 0.8077 -0.4789
vn 0.4568 0.8052 -0.3782
vn 0.5358 0.8068 -0.2492
vn 0.4844 0.8068 0.3384
vn 0.1005 -0.7757 0.6230
vn -0.0320 -0.9840 0.1753
vn 0.3418 -0.8104 -0.4758
vn -0.2437 -0.8130 -0.5287
vn -0.5453 -0.8130 -0.2039
vn -0.5725 -0.8130 0.1061
vn -0.3407 -0.7792 0.5261
vn -0.5058 0.4779 0.7182
vn -0.5038 -0.4839 0.7155
vn -0.5044 -0.3743 0.7781
vn -0.4127 -0.1136 0.9037
vn -0.4025 -0.0039 0.9154
vn -0.4131 0.1059 0.9045
vn -0.4997 0.3667 0.7848
vn 0.1357 0.3635 0.9217
vn 0.0019 0.1056 0.9944
vn -0.0152 -0.0039 0.9999
vn 0.0019 -0.1134 0.9936
vn 0.1353 -0.3702 0.9191
vn 0.1641 -0.4823 0.8605
vn 0.1647 0.4763 0.8637
vn 0.4042 -0.0039 0.9147
vn -0.7480 -0.0040 0.6637
vn 0.1004 -0.7757 0.6230
usemtl Material.017
s 1
f 1/1/1 2/2/2 3/3/3
f 3/3/3 4/4/4 1/1/1
f 5/5/5 6/6/6 2/2/2
f 2/2/2 1/1/1 5/5/5
f 7/7/7 8/8/8 9/9/9
f 9/9/9 10/10/10 7/7/7
f 11/11/11 12/12/12 8/8/8
f 8/8/8 7/7/7 11/11/11
f 13/13/13 14/14/14 12/12/12
f 12/12/12 11/11/11 13/13/13
f 15/15/15 16/16/16 14/14/14
f 14/14/14 13/13/13 15/15/15
f 17/17/17 18/18/18 16/16/16
f 16/16/16 15/15/15 17/17/17
f 19/19/19 20/20/20 18/18/18
f 18/18/18 17/17/17 19/19/19
f 21/21/21 22/22/22 20/20/20
f 20/20/20 19/19/19 21/21/21
f 23/23/23 24/24/24 22/22/22
f 22/22/22 21/21/21 23/23/23
f 25/25/25 26/26/26 27/27/24
f 27/27/24 28/28/23 25/25/25
f 29/29/27 30/30/28 26/26/26
f 26/26/26 25/25/25 29/29/27
f 31/31/29 32/32/30 30/30/28
f 30/30/28 29/29/27 31/31/29
f 33/33/31 34/34/32 32/32/30
f 32/32/30 31/31/29 33/33/31
f 35/35/33 36/36/34 34/34/32
f 34/34/32 33/33/31 35/35/33
f 37/37/35 38/38/36 36/36/34
f 36/36/34 35/35/33 37/37/35
f 39/39/37 40/40/38 38/38/36
f 38/38/36 37/37/35 39/39/37
f 41/41/39 1/1/1 4/4/4
f 4/4/4 42/42/40 41/41/39
f 43/43/41 5/5/5 1/1/1
f 1/1/1 41/41/39 43/43/41
f 44/44/42 7/7/7 10/10/10
f 10/10/10 45/45/41 44/44/42
f 46/46/43 11/11/11 7/7/7
f 7/7/7 44/44/42 46/46/43
f 47/47/44 13/13/13 11/11/11
f 11/11/11 46/46/43 47/47/44
f 48/48/45 15/15/15 13/13/13
f 13/13/13 47/47/44 48/48/45
f 49/49/46 17/17/17 15/15/15
f 15/15/15 48/48/45 49/49/46
f 50/50/47 19/19/19 17/17/17
f 17/17/17 49/49/46 50/50/47
f 51/51/48 21/21/21 19/19/19
f 19/19/19 50/50/47 51/51/48
f 52/52/49 23/23/23 21/21/21
f 21/21/21 51/51/48 52/52/49
f 53/53/50 25/25/25 28/28/23
f 28/28/23 54/54/49 53/53/50
f 55/55/51 29/29/27 25/25/25
f 25/25/25 53/53/50 55/55/51
f 56/56/52 31/31/29 29/29/27
f 29/29/27 55/55/51 56/56/52
f 57/57/53 33/33/31 31/31/29
f 31/31/29 56/56/52 57/57/53
f 58/58/54 35/35/33 33/33/31
f 33/33/31 57/57/53 58/58/54
f 59/59/55 37/37/35 35/35/33
f 35/35/33 58/58/54 59/59/55
f 60/60/56 39/39/37 37/37/35
f 37/37/35 59/59/55 60/60/56
f 61/61/57 41/41/39 42/42/40
f 42/42/40 62/62/58 61/61/57
f 63/63/59 43/43/41 41/41/39
f 41/41/39 61/61/57 63/63/59
f 64/64/60 44/44/42 45/45/41
f 45/45/41 65/65/59 64/64/60
f 66/66/61 46/46/43 44/44/42
f 44/44/42 64/64/60 66/66/61
f 67/67/62 47/47/44 46/46/43
f 46/46/43 66/66/61 67/67/62
f 68/68/63 48/48/45 47/47/44
f 47/47/44 67/67/62 68/68/63
f 69/69/64 49/49/46 48/48/45
f 48/48/45 68/68/63 69/69/64
f 70/70/65 50/50/47 49/49/46
f 49/49/46 69/69/64 70/70/65
f 71/71/66 51/51/48 50/50/47
f 50/50/47 70/70/65 71/71/66
f 72/72/67 52/52/49 51/51/48
f 51/51/48 71/71/66 72/72/67
f 73/73/68 53/53/50 54/54/49
f 54/54/49 74/74/69 73/73/68
f 75/75/70 55/55/51 53/53/50
f 53/53/50 73/73/68 75/75/70
f 76/76/71 56/56/52 55/55/51
f 55/55/51 75/75/70 76/76/71
f 77/77/72 57/57/53 56/56/52
f 56/56/52 76/76/71 77/77/72
f 78/78/73 58/58/54 57/57/53
f 57/57/53 77/77/72 78/78/73
f 79/79/74 59/59/55 58/58/54
f 58/58/54 78/78/73 79/79/74
f 80/80/75 60/60/56 59/59/55
f 59/59/55 79/79/74 80/80/75
f 81/81/76 61/61/57 62/62/58
f 62/62/58 82/82/77 81/81/76
f 83/83/78 63/63/59 61/61/57
f 61/61/57 81/81/76 83/83/78
f 84/84/79 64/64/60 65/65/59
f 65/65/59 85/85/78 84/84/79
f 86/86/80 66/66/61 64/64/60
f 64/64/60 84/84/79 86/86/80
f 87/87/81 67/67/62 66/66/61
f 66/66/61 86/86/80 87/87/81
f 88/88/82 68/68/63 67/67/62
f 67/67/62 87/87/81 88/88/82
f 89/89/83 69/69/64 68/68/63
f 68/68/63 88/88/82 89/89/83
f 90/90/84 70/70/65 69/69/64
f 69/69/64 89/89/83 90/90/84
f 91/91/85 71/71/66 70/70/65
f 70/70/65 90/90/84 91/91/85
f 92/92/86 72/72/67 71/71/66
f 71/71/66 91/91/85 92/92/86
f 93/93/87 73/73/68 74/74/69
f 74/74/69 94/94/86 93/93/87
f 95/95/88 75/75/70 73/73/68
f 73/73/68 93/93/87 95/95/88
f 96/96/89 76/76/71 75/75/70
f 75/75/70 95/95/88 96/96/89
f 97/97/90 77/77/72 76/76/71
f 76/76/71 96/96/89 97/97/90
f 98/98/91 78/78/73 77/77/72
f 77/77/72 97/97/90 98/98/91
f 99/99/92 79/79/74 78/78/73
f 78/78/73 98/98/91 99/99/92
f 100/100/93 80/80/75 79/79/74
f 79/79/74 99/99/92 100/100/93
f 101/101/36 102/102/38 103/103/94
f 104/104/34 101/101/36 103/103/94
f 105/105/95 104/104/34 103/103/94
f 106/106/96 105/105/95 103/103/94
f 107/107/28 106/106/96 103/103/94
f 108/108/26 107/107/28 103/103/94
f 109/109/24 108/108/26 103/103/94
f 110/110/22 109/109/24 103/103/94
f 111/111/20 110/110/22 103/103/94
f 112/112/97 111/111/20 103/103/94
f 113/113/98 112/112/97 103/103/94
f 114/114/99 113/113/98 103/103/94
f 115/115/12 114/114/99 103/103/94
f 116/116/8 115/115/12 103/103/94
f 117/117/6 116/116/8 103/103/94
f 118/118/100 117/117/6 103/103/94
f 119/119/3 118/118/100 103/103/94
f 120/120/76 121/121/101 122/122/102
f 123/123/78 120/120/76 122/122/102
f 124/124/79 123/123/78 122/122/102
f 125/125/80 124/124/79 122/122/102
f 87/87/81 125/125/80 122/122/102
f 88/88/82 87/87/81 122/122/102
f 126/126/103 88/88/82 122/122/102
f 127/127/84 126/126/103 122/122/102
f 128/128/85 127/127/84 122/122/102
f 129/129/86 128/128/85 122/122/102
f 130/130/104 129/129/86 122/122/102
f 131/131/88 130/130/104 122/122/102
f 132/132/89 131/131/88 122/122/102
f 133/133/105 132/132/89 122/122/102
f 134/134/91 133/133/105 122/122/102
f 135/135/106 134/134/91 122/122/102
f 136/136/107 135/135/106 122/122/102
f 137/137/108 138/138/109 139/139/110
f 139/139/110 140/140/111 141/141/112
f 139/139/110 141/141/112 142/142/113
f 137/137/108 139/139/110 142/142/113
f 143/143/114 137/137/108 142/142/113
f 144/144/115 145/145/116 146/146/117
f 146/146/117 147/147/118 148/148/119
f 144/144/115 146/146/117 148/148/119
f 144/144/115 148/148/119 149/149/120
f 150/150/121 144/144/115 149/149/120
f 151/151/94 150/150/121 137/137/108
f 138/138/109 149/149/120 152/152/102
f 153/153/3 143/143/114 142/142/113
f 142/142/113 154/154/4 153/153/3
f 155/155/37 145/145/116 144/144/115
f 144/144/115 156/156/38 155/155/37
f 154/154/4 142/142/113 141/141/112
f 141/141/112 157/157/122 154/154/4
f 158/158/123 146/146/117 145/145/116
f 145/145/116 155/155/37 158/158/123
f 157/157/122 141/141/112 140/140/111
f 140/140/111 159/159/58 157/157/122
f 160/160/75 147/147/118 146/146/117
f 146/146/117 158/158/123 160/160/75
f 159/159/58 140/140/111 139/139/110
f 139/139/110 161/161/124 159/159/58
f 162/162/107 148/148/119 147/147/118
f 147/147/118 160/160/75 162/162/107
f 156/156/38 144/144/115 150/150/121
f 150/150/121 151/151/94 156/156/38
f 151/151/94 137/137/108 143/143/114
f 143/143/114 153/153/3 151/151/94
f 152/152/102 149/149/120 148/148/119
f 148/148/119 162/162/107 152/152/102
f 163/163/124 139/139/110 138/138/109
f 138/138/109 152/152/102 163/163/124
f 137/137/108 150/150/121 149/149/120
f 149/149/120 138/138/109 137/137/108
